<svg xmlns="http://www.w3.org/2000/svg" width="1360" height="670" viewBox="0 0 1360 670" role="img" aria-label="RobotoMonoPlex">
  <defs>
    <linearGradient id="title" x1="0" y1="0" x2="1" y2="0">
      <stop offset="0%" stop-color="#7AA2F7"/>
      <stop offset="50%" stop-color="#BB9AF7"/>
      <stop offset="100%" stop-color="#7DCFFF"/>
    </linearGradient>
  </defs>
  <rect width="1360" height="670" fill="#4A90E2"/>
  <rect x="112" y="88" width="1136" height="494" rx="16" fill="#282C34" stroke="#3E4451"/>
  <circle cx="152" cy="132" r="11" fill="#FF5F57"/><circle cx="191" cy="132" r="11" fill="#FEBC2E"/><circle cx="230" cy="132" r="11" fill="#28C840"/><g transform="translate(148 220) scale(0.026367 -0.026367)" fill="url(#title)"><path transform="translate(0 0)" d="M365 746V1304H608Q677 1302 732.0 1285.0Q787 1268 829 1232Q871 1194 893 1144Q916 1090 916 1021Q916 955 892 904Q869 855 827 819Q784 783 730 766Q673 747 613 746ZM656 594 942 0H1137L1138 12L829 634Q890 660 939 697Q991 736 1025 782Q1061 830 1082 889Q1102 945 1102 1019Q1102 1131 1064 1210Q1024 1293 958 1346Q891 1400 800 1427Q708 1455 608 1456H181V0H365V594Z"/><path transform="translate(1229 0)" d="M307 529V551Q307 632 326 702Q346 776 384 830Q421 884 479 918Q534 950 613 950Q693 950 748 918Q806 885 844 830Q883 772 902.0 702.0Q921 632 921 551V529Q921 446 902 376Q883 305 845 249Q807 194 748 162Q690 130 615 130Q539 130 480 162Q422 194 384 249Q346 304 326 376Q307 446 307 529ZM122 551V529Q122 411 156 312Q191 210 254 138Q318 63 408 22Q500 -20 615 -20Q728 -20 820 22Q909 63 975 138Q1037 211 1072 312Q1106 411 1106 529V551Q1106 669 1072 768Q1037 871 975 943Q908 1020 820 1060Q728 1102 613 1102Q500 1102 408 1060Q319 1019 254 943Q192 872 156 768Q122 669 122 551Z"/><path transform="translate(2458 0)" d="M906 550V529Q906 482 900.0 435.0Q894 388 881 349Q864 295 838.0 253.0Q812 211 771 182Q743 161 703 148Q669 137 619 137Q575 137 531 150Q492 162 459 185Q425 209 402 238Q379 266 360 305V778Q374 810 402 844Q428 877 458 898Q489 920 529 932Q573 945 617 945Q663 945 697 935Q735 924 762 907Q805 881 833 838Q862 794 880 741Q894 694 900 650Q906 602 906 550ZM1091 529V550Q1091 633 1077 712Q1064 786 1036 851Q1010 908 976 952Q938 1002 899 1030Q854 1062 792 1083Q735 1102 663 1102Q609 1102 559 1091Q514 1081 471 1059Q441 1043 411.0 1018.0Q381 993 360 966V1536H175V0H345L354 123Q370 103 392 81Q408 65 434 46Q483 13 538 -3Q597 -20 665 -20Q726 -20 778 -5Q832 11 875 37Q936 76 980 136Q1023 196 1050 270Q1070 328 1080 392Q1091 461 1091 529Z"/><path transform="translate(3687 0)" d="M307 529V551Q307 632 326 702Q346 776 384 830Q421 884 479 918Q534 950 613 950Q693 950 748 918Q806 885 844 830Q883 772 902.0 702.0Q921 632 921 551V529Q921 446 902 376Q883 305 845 249Q807 194 748 162Q690 130 615 130Q539 130 480 162Q422 194 384 249Q346 304 326 376Q307 446 307 529ZM122 551V529Q122 411 156 312Q191 210 254 138Q318 63 408 22Q500 -20 615 -20Q728 -20 820 22Q909 63 975 138Q1037 211 1072 312Q1106 411 1106 529V551Q1106 669 1072 768Q1037 871 975 943Q908 1020 820 1060Q728 1102 613 1102Q500 1102 408 1060Q319 1019 254 943Q192 872 156 768Q122 669 122 551Z"/><path transform="translate(4916 0)" d="M612 1344H426V1082H142V939H426V351Q426 248 452 180Q479 109 525 66Q572 21 634 0Q694 -20 768 -20Q815 -20 854 -16Q899 -11 937 -4Q976 4 1009 14Q1043 25 1065 38L1039 169Q1033 167 1018.0 164.5Q1003 162 996 160Q962 152 939 149L876 140Q844 137 814 137Q770 137 736 147Q699 158 672 182Q645 204 628 247Q612 286 612 351V939H1024V1082H612Z"/><path transform="translate(6145 0)" d="M307 529V551Q307 632 326 702Q346 776 384 830Q421 884 479 918Q534 950 613 950Q693 950 748 918Q806 885 844 830Q883 772 902.0 702.0Q921 632 921 551V529Q921 446 902 376Q883 305 845 249Q807 194 748 162Q690 130 615 130Q539 130 480 162Q422 194 384 249Q346 304 326 376Q307 446 307 529ZM122 551V529Q122 411 156 312Q191 210 254 138Q318 63 408 22Q500 -20 615 -20Q728 -20 820 22Q909 63 975 138Q1037 211 1072 312Q1106 411 1106 529V551Q1106 669 1072 768Q1037 871 975 943Q908 1020 820 1060Q728 1102 613 1102Q500 1102 408 1060Q319 1019 254 943Q192 872 156 768Q122 669 122 551Z"/><path transform="translate(7374 0)" d="M377 1456H148V0H328V581L313 1168L560 405H666L935 1189L920 581V0H1100V1456H870L614 728Z"/><path transform="translate(8603 0)" d="M307 529V551Q307 632 326 702Q346 776 384 830Q421 884 479 918Q534 950 613 950Q693 950 748 918Q806 885 844 830Q883 772 902.0 702.0Q921 632 921 551V529Q921 446 902 376Q883 305 845 249Q807 194 748 162Q690 130 615 130Q539 130 480 162Q422 194 384 249Q346 304 326 376Q307 446 307 529ZM122 551V529Q122 411 156 312Q191 210 254 138Q318 63 408 22Q500 -20 615 -20Q728 -20 820 22Q909 63 975 138Q1037 211 1072 312Q1106 411 1106 529V551Q1106 669 1072 768Q1037 871 975 943Q908 1020 820 1060Q728 1102 613 1102Q500 1102 408 1060Q319 1019 254 943Q192 872 156 768Q122 669 122 551Z"/><path transform="translate(9832 0)" d="M174 0H359V776Q380 813 404 840Q431 870 459 891Q492 913 540 930Q584 945 635 945Q693 945 740 931Q786 917 817 886Q847 856 864 805Q880 757 880 683V0H1065V687Q1065 796 1038 874Q1010 954 963 1003Q914 1054 844 1078Q775 1102 690 1102Q622 1100 570 1084Q516 1067 466 1034Q436 1014 406 984Q374 952 353 922L340 1082H174Z"/><path transform="translate(11061 0)" d="M307 529V551Q307 632 326 702Q346 776 384 830Q421 884 479 918Q534 950 613 950Q693 950 748 918Q806 885 844 830Q883 772 902.0 702.0Q921 632 921 551V529Q921 446 902 376Q883 305 845 249Q807 194 748 162Q690 130 615 130Q539 130 480 162Q422 194 384 249Q346 304 326 376Q307 446 307 529ZM122 551V529Q122 411 156 312Q191 210 254 138Q318 63 408 22Q500 -20 615 -20Q728 -20 820 22Q909 63 975 138Q1037 211 1072 312Q1106 411 1106 529V551Q1106 669 1072 768Q1037 871 975 943Q908 1020 820 1060Q728 1102 613 1102Q500 1102 408 1060Q319 1019 254 943Q192 872 156 768Q122 669 122 551Z"/><path transform="translate(12290 0)" d="M376 736V1304H663Q728 1302 782 1283Q835 1264 876 1226Q916 1188 938 1136Q960 1085 960 1017Q960 950 938 900Q915 847 875 812Q833 775 781 756Q730 738 663 736ZM376 584H663Q761 586 848 614Q937 643 1002 698Q1067 752 1106 834Q1145 915 1145 1019Q1145 1124 1106 1205Q1067 1287 1002 1341Q937 1396 848 1425Q758 1455 663 1456H191V0H376Z"/><path transform="translate(13519 0)" d="M203 1536V1375H571V160H203V0H1109V160H756V1536Z"/><path transform="translate(14748 0)" d="M628 950Q698 950 750 924Q801 898 836 856Q868 817 889 756Q908 700 908 649V640H326Q336 714 364 772Q391 829 432 870Q472 909 522 930Q569 950 628 950ZM652 -20Q808 -20 918 44Q1025 106 1079 189L966 277Q916 212 838 171Q762 131 662 131Q585 131 525 159Q460 189 419 236Q376 282 352 342Q327 404 320 481V488H1093V571Q1093 682 1064.0 781.0Q1035 880 978 950Q918 1022 832.0 1062.0Q746 1102 628 1102Q536 1102 446 1064Q360 1028 289 955Q219 884 177.0 780.0Q135 676 135 545V503Q135 391 173 294Q209 201 279 128Q346 58 442.0 19.0Q538 -20 652 -20Z"/><path transform="translate(15977 0)" d="M621 681 335 1082H121L524 547L110 0H326L625 412L924 0H1138L724 547L1127 1082H910Z"/></g><g transform="translate(148 284) scale(0.015625 -0.015625)" fill="#E06C75"><path transform="translate(0 0)" d="M469 547 538 901H802L733 547ZM707 410 627 0H770L850 410H1102V547H876L945 901H1177V1040H972L1054 1456H911L829 1040H565L647 1456H504L422 1040H137V901H395L326 547H61V410H300L220 0H363L443 410Z"/><path transform="translate(2458 0)" d="M433 538 628 1170 820 538ZM869 377 984 0H1168L706 1456H551L81 0H266L383 377Z"/><path transform="translate(3687 0)" d="M203 1536V1375H571V160H203V0H1109V160H756V1536Z"/><path transform="translate(4916 0)" d="M902 550V529Q902 450 884 378Q866 304 831 251Q797 198 739 164Q684 131 606 131Q557 131 518 143Q478 155 447 176Q422 192 397 220Q375 245 358 276V797Q378 832 402 859Q425 885 459 906Q485 924 524 935Q558 945 604 945Q682 945 738 913Q793 882 831 827Q866 774 884 700Q902 628 902 550ZM173 -416H358V104Q374 86 401 64Q425 44 450 30Q493 6 546 -7Q598 -20 662 -20Q764 -20 844 22Q922 63 977 138Q1030 210 1059 312Q1087 411 1087 529V550Q1087 672 1059 772Q1030 874 977 947Q923 1020 843.0 1061.0Q763 1102 659 1102Q599 1102 548 1090Q500 1079 455 1053Q424 1036 399 1014Q371 989 351 964L342 1082H173Z"/><path transform="translate(6145 0)" d="M359 921V1536H174V0H359V786Q378 816 404 844Q430 871 460 891Q500 918 543 931Q590 945 638 945Q642 945 647 945Q702 945 746 928Q793 910 824 876Q853 844 868.0 796.0Q883 748 883 683V0H1068V681Q1068 793 1042 870Q1015 949 966 1001Q916 1055 848 1078Q779 1102 693 1102Q625 1100 570 1083Q514 1065 465 1030Q435 1009 408 982Q385 959 359 921Z"/><path transform="translate(7374 0)" d="M463 155Q422 169 395 194Q367 219 354.0 252.0Q341 285 341 326Q341 368 356 401Q370 433 402 458Q442 491 516.0 508.0Q590 525 683 525H855V306Q837 271 811 244Q784 215 745 192Q703 168 659 155Q611 141 558.0 141.0Q505 141 463 155ZM885 0H1078V16Q1061 58 1050 122Q1040 179 1040 236V739Q1040 830 1007.0 898.0Q974 966 917 1012Q857 1058 780 1080Q702 1102 609 1102Q506 1102 428 1074Q349 1046 294 1001Q237 953 208 898Q180 844 178 782H364Q364 817 380.0 848.0Q396 879 427 902Q460 926 500 939Q545 953 599 953Q658 953 706 938Q752 924 786 896Q819 867 837 829Q855 790 855 741V656H653Q537 656 448 634Q356 612 292 568Q228 523 192 456Q156 388 156 300Q156 230 182 174Q210 114 258 73Q303 32 376 5Q444 -20 531 -20Q582 -20 631 -9Q678 2 720 21Q767 44 796 65Q830 91 858 118Q860 93 868 52Q874 23 885 0Z"/><path transform="translate(8603 0)" d="M906 550V529Q906 482 900.0 435.0Q894 388 881 349Q864 295 838.0 253.0Q812 211 771 182Q743 161 703 148Q669 137 619 137Q575 137 531 150Q492 162 459 185Q425 209 402 238Q379 266 360 305V778Q374 810 402 844Q428 877 458 898Q489 920 529 932Q573 945 617 945Q663 945 697 935Q735 924 762 907Q805 881 833 838Q862 794 880 741Q894 694 900 650Q906 602 906 550ZM1091 529V550Q1091 633 1077 712Q1064 786 1036 851Q1010 908 976 952Q938 1002 899 1030Q854 1062 792 1083Q735 1102 663 1102Q609 1102 559 1091Q514 1081 471 1059Q441 1043 411.0 1018.0Q381 993 360 966V1536H175V0H345L354 123Q370 103 392 81Q408 65 434 46Q483 13 538 -3Q597 -20 665 -20Q726 -20 778 -5Q832 11 875 37Q936 76 980 136Q1023 196 1050 270Q1070 328 1080 392Q1091 461 1091 529Z"/><path transform="translate(9832 0)" d="M628 950Q698 950 750 924Q801 898 836 856Q868 817 889 756Q908 700 908 649V640H326Q336 714 364 772Q391 829 432 870Q472 909 522 930Q569 950 628 950ZM652 -20Q808 -20 918 44Q1025 106 1079 189L966 277Q916 212 838 171Q762 131 662 131Q585 131 525 159Q460 189 419 236Q376 282 352 342Q327 404 320 481V488H1093V571Q1093 682 1064.0 781.0Q1035 880 978 950Q918 1022 832.0 1062.0Q746 1102 628 1102Q536 1102 446 1064Q360 1028 289 955Q219 884 177.0 780.0Q135 676 135 545V503Q135 391 173 294Q209 201 279 128Q346 58 442.0 19.0Q538 -20 652 -20Z"/><path transform="translate(11061 0)" d="M612 1344H426V1082H142V939H426V351Q426 248 452 180Q479 109 525 66Q572 21 634 0Q694 -20 768 -20Q815 -20 854 -16Q899 -11 937 -4Q976 4 1009 14Q1043 25 1065 38L1039 169Q1033 167 1018.0 164.5Q1003 162 996 160Q962 152 939 149L876 140Q844 137 814 137Q770 137 736 147Q699 158 672 182Q645 204 628 247Q612 286 612 351V939H1024V1082H612Z"/></g><g transform="translate(148 324) scale(0.015625 -0.015625)" fill="#ABB2BF"><path transform="translate(0 0)" d="M463 155Q422 169 395 194Q367 219 354.0 252.0Q341 285 341 326Q341 368 356 401Q370 433 402 458Q442 491 516.0 508.0Q590 525 683 525H855V306Q837 271 811 244Q784 215 745 192Q703 168 659 155Q611 141 558.0 141.0Q505 141 463 155ZM885 0H1078V16Q1061 58 1050 122Q1040 179 1040 236V739Q1040 830 1007.0 898.0Q974 966 917 1012Q857 1058 780 1080Q702 1102 609 1102Q506 1102 428 1074Q349 1046 294 1001Q237 953 208 898Q180 844 178 782H364Q364 817 380.0 848.0Q396 879 427 902Q460 926 500 939Q545 953 599 953Q658 953 706 938Q752 924 786 896Q819 867 837 829Q855 790 855 741V656H653Q537 656 448 634Q356 612 292 568Q228 523 192 456Q156 388 156 300Q156 230 182 174Q210 114 258 73Q303 32 376 5Q444 -20 531 -20Q582 -20 631 -9Q678 2 720 21Q767 44 796 65Q830 91 858 118Q860 93 868 52Q874 23 885 0Z"/><path transform="translate(1229 0)" d="M906 550V529Q906 482 900.0 435.0Q894 388 881 349Q864 295 838.0 253.0Q812 211 771 182Q743 161 703 148Q669 137 619 137Q575 137 531 150Q492 162 459 185Q425 209 402 238Q379 266 360 305V778Q374 810 402 844Q428 877 458 898Q489 920 529 932Q573 945 617 945Q663 945 697 935Q735 924 762 907Q805 881 833 838Q862 794 880 741Q894 694 900 650Q906 602 906 550ZM1091 529V550Q1091 633 1077 712Q1064 786 1036 851Q1010 908 976 952Q938 1002 899 1030Q854 1062 792 1083Q735 1102 663 1102Q609 1102 559 1091Q514 1081 471 1059Q441 1043 411.0 1018.0Q381 993 360 966V1536H175V0H345L354 123Q370 103 392 81Q408 65 434 46Q483 13 538 -3Q597 -20 665 -20Q726 -20 778 -5Q832 11 875 37Q936 76 980 136Q1023 196 1050 270Q1070 328 1080 392Q1091 461 1091 529Z"/><path transform="translate(2458 0)" d="M635 130Q548 130 490 164Q431 199 396 255Q359 313 344 380Q329 449 329 520V562Q329 632 344 701Q359 768 396 826Q432 882 490.0 916.0Q548 950 635 950Q693 950 740 931Q790 911 823.0 879.0Q856 847 878 802Q898 760 900 710H1075Q1075 792 1042 864Q1008 938 951 989Q891 1043 812 1072Q731 1102 635 1102Q513 1102 420 1058Q330 1015 267 940Q206 865 174 767Q143 671 143 562V520Q143 410 174 314Q206 216 267 143Q329 67 420 24Q513 -20 635 -20Q720 -20 800 10Q879 40 940 89Q1003 140 1038 204Q1074 269 1075 341H900Q899 297 876.0 258.0Q853 219 817 191Q779 162 732.0 146.0Q685 130 635 130Z"/><path transform="translate(3687 0)" d="M324 529V550Q324 626 341 700Q357 770 394 827Q429 882 484 913Q540 945 618 945Q707 945 770 902Q831 861 867 794V292Q830 220 770 179Q708 137 616 137Q539 137 484.0 168.0Q429 199 394 254Q357 309 341 379Q324 452 324 529ZM139 550V529Q139 411 170 312Q202 212 257 138Q313 64 392 22Q472 -20 570 -20Q671 -20 745 14Q821 49 874 114L882 0H1052V1536H867V975Q814 1037 742 1070Q672 1102 572 1102Q473 1102 393 1061Q312 1020 257 947Q200 873 170 772Q139 667 139 550Z"/><path transform="translate(4916 0)" d="M628 950Q698 950 750 924Q801 898 836 856Q868 817 889 756Q908 700 908 649V640H326Q336 714 364 772Q391 829 432 870Q472 909 522 930Q569 950 628 950ZM652 -20Q808 -20 918 44Q1025 106 1079 189L966 277Q916 212 838 171Q762 131 662 131Q585 131 525 159Q460 189 419 236Q376 282 352 342Q327 404 320 481V488H1093V571Q1093 682 1064.0 781.0Q1035 880 978 950Q918 1022 832.0 1062.0Q746 1102 628 1102Q536 1102 446 1064Q360 1028 289 955Q219 884 177.0 780.0Q135 676 135 545V503Q135 391 173 294Q209 201 279 128Q346 58 442.0 19.0Q538 -20 652 -20Z"/><path transform="translate(6145 0)" d="M450 0H636V939H1053V1082H636V1158Q636 1226 654 1277Q673 1331 705 1360Q735 1390 786.0 1406.0Q837 1422 897 1422Q963 1422 1014 1412Q1062 1403 1109 1387L1131 1540Q1123 1542 1114.5 1544.0Q1106 1546 1096.0 1548.5Q1086 1551 1080 1552Q1043 1561 1030 1563Q1005 1568 953 1574Q910 1579 874 1579Q778 1579 700 1552Q624 1526 567.0 1472.0Q510 1418 480.0 1340.0Q450 1262 450 1158V1082H152V939H450Z"/><path transform="translate(7374 0)" d="M325 529V550Q325 626 342 700Q359 772 394.0 827.0Q429 882 484 913Q540 945 618 945Q668 945 702 934Q738 923 771 902Q802 881 826 853Q851 823 868 791V295Q849 258 826 231Q801 201 772 181Q740 160 702 148Q666 137 616 137Q539 137 484.0 168.0Q429 199 394 254Q359 307 342 379Q325 452 325 529ZM140 550V529Q140 412 170 312Q200 213 256 138Q312 64 391.0 22.0Q470 -20 570 -20Q629 -20 680 -8Q726 3 773 28Q798 42 824 63Q843 78 868 107V14Q868 -55 848 -110Q828 -164 791 -200Q756 -235 700 -256Q649 -275 581 -275Q542 -275 507 -268Q476 -262 433 -243Q397 -227 360 -198Q328 -173 290 -128L194 -239Q233 -293 282.0 -328.0Q331 -363 390 -385Q444 -407 499 -416Q559 -426 595 -426Q697 -426 781.0 -396.0Q865 -366 926 -308Q988 -248 1020 -167Q1053 -84 1053 23V1082H885L876 964Q853 992 836 1008Q815 1027 790 1043Q746 1072 692.0 1087.0Q638 1102 572 1102Q471 1102 391 1061Q310 1020 255.0 947.0Q200 874 170.0 772.0Q140 670 140 550Z"/><path transform="translate(8603 0)" d="M359 921V1536H174V0H359V786Q378 816 404 844Q430 871 460 891Q500 918 543 931Q590 945 638 945Q642 945 647 945Q702 945 746 928Q793 910 824 876Q853 844 868.0 796.0Q883 748 883 683V0H1068V681Q1068 793 1042 870Q1015 949 966 1001Q916 1055 848 1078Q779 1102 693 1102Q625 1100 570 1083Q514 1065 465 1030Q435 1009 408 982Q385 959 359 921Z"/><path transform="translate(9832 0)" d="M547 1366Q547 1321 574.0 1291.0Q601 1261 658 1261Q712 1261 741 1291Q769 1320 769 1366Q769 1390 761.0 1412.0Q753 1434 737 1447Q724 1460 704 1468Q686 1475 658 1475Q632 1475 612.0 1468.0Q592 1461 578 1447Q562 1432 554 1411Q547 1391 547 1366ZM203 1082V921H571V160H203V0H1109V160H756V1082Z"/><path transform="translate(11061 0)" d="M634 1367Q634 1322 661 1292Q689 1261 744.0 1261.0Q799 1261 828 1292Q856 1321 856.0 1367.0Q856 1413 828.0 1444.0Q800 1475 744.0 1475.0Q688 1475 661.0 1444.0Q634 1413 634 1367ZM299 1082V921H660V-7Q660 -82 640 -136Q619 -191 587 -221Q552 -253 507 -266Q459 -280 409 -280H370Q363 -280 354.5 -279.5Q346 -279 336.0 -278.0Q326 -277 320 -277Q268 -274 267 -274Q239 -271 224 -268L211 -420Q248 -427 259 -428Q288 -432 305 -433L362 -436Q381 -437 422 -437Q521 -437 600 -408Q680 -379 734 -325Q787 -272 816.0 -191.0Q845 -110 845 -7V1082Z"/><path transform="translate(12290 0)" d="M498 505 895 0H1130L625 631L1063 1082H838L483 726L362 596V1536H176V0H362V374Z"/><path transform="translate(13519 0)" d="M203 1536V1375H571V160H203V0H1109V160H756V1536Z"/><path transform="translate(14748 0)" d="M259 1082H93V0H269V861Q275 878 284 891Q294 906 307 916Q325 931 348 938Q370 945 406 945Q437 945 458 938Q481 930 496 914Q512 898 520 871Q527 847 527 811V0H703V810V820V830Q706 855 715 876Q723 895 740 912Q757 927 780 936Q804 945 837 945Q866 945 892 937Q914 930 931 913Q946 896 954 870Q962 843 962 810V0H1138V808Q1138 887 1120 944Q1102 1002 1068 1037Q1035 1070 992 1086Q948 1102 891 1102Q847 1100 816 1091Q782 1080 753 1064Q735 1052 712 1029Q694 1011 679 986Q670 1007 652 1031Q635 1053 618 1065Q592 1083 558 1092Q520 1102 480 1102Q404 1101 350 1069Q298 1039 264 980Z"/><path transform="translate(15977 0)" d="M174 0H359V776Q380 813 404 840Q431 870 459 891Q492 913 540 930Q584 945 635 945Q693 945 740 931Q786 917 817 886Q847 856 864 805Q880 757 880 683V0H1065V687Q1065 796 1038 874Q1010 954 963 1003Q914 1054 844 1078Q775 1102 690 1102Q622 1100 570 1084Q516 1067 466 1034Q436 1014 406 984Q374 952 353 922L340 1082H174Z"/><path transform="translate(17206 0)" d="M307 529V551Q307 632 326 702Q346 776 384 830Q421 884 479 918Q534 950 613 950Q693 950 748 918Q806 885 844 830Q883 772 902.0 702.0Q921 632 921 551V529Q921 446 902 376Q883 305 845 249Q807 194 748 162Q690 130 615 130Q539 130 480 162Q422 194 384 249Q346 304 326 376Q307 446 307 529ZM122 551V529Q122 411 156 312Q191 210 254 138Q318 63 408 22Q500 -20 615 -20Q728 -20 820 22Q909 63 975 138Q1037 211 1072 312Q1106 411 1106 529V551Q1106 669 1072 768Q1037 871 975 943Q908 1020 820 1060Q728 1102 613 1102Q500 1102 408 1060Q319 1019 254 943Q192 872 156 768Q122 669 122 551Z"/><path transform="translate(18435 0)" d="M902 550V529Q902 450 884 378Q866 304 831 251Q797 198 739 164Q684 131 606 131Q557 131 518 143Q478 155 447 176Q422 192 397 220Q375 245 358 276V797Q378 832 402 859Q425 885 459 906Q485 924 524 935Q558 945 604 945Q682 945 738 913Q793 882 831 827Q866 774 884 700Q902 628 902 550ZM173 -416H358V104Q374 86 401 64Q425 44 450 30Q493 6 546 -7Q598 -20 662 -20Q764 -20 844 22Q922 63 977 138Q1030 210 1059 312Q1087 411 1087 529V550Q1087 672 1059 772Q1030 874 977 947Q923 1020 843.0 1061.0Q763 1102 659 1102Q599 1102 548 1090Q500 1079 455 1053Q424 1036 399 1014Q371 989 351 964L342 1082H173Z"/><path transform="translate(19664 0)" d="M325 529V550Q325 633 342 701Q360 775 397 829Q432 883 489 917Q544 950 622 950Q668 950 702 940Q737 930 769 910Q804 887 824 866Q847 842 867 809V275Q846 239 822 214Q798 188 765 168Q735 152 699 141Q665 131 620 131Q544 131 488 164Q430 198 396 251Q360 307 342 378Q325 446 325 529ZM140 550V529Q140 412 170 312Q200 210 255 138Q311 64 392.0 22.0Q473 -20 575 -20Q630 -20 674 -10Q723 1 759 19Q783 29 816 53Q843 72 867 98V-416H1052V1082H882L874 975Q851 1001 829 1019Q803 1040 778 1054Q735 1078 686 1090Q635 1102 577 1102Q474 1102 392 1061Q309 1019 254 947Q197 871 169 772Q140 668 140 550Z"/><path transform="translate(20893 0)" d="M883 1102Q767 1102 672 1050Q581 1000 514 910L513 937L505 1082H329V0H515V694Q533 744 560 784Q586 824 625 853Q668 886 721 902Q775 918 844 918Q898 918 946 912Q1004 905 1048 895L1073 1076Q1046 1087 990 1095Q938 1102 883 1102Z"/><path transform="translate(22122 0)" d="M893 287Q893 259 883 238Q872 214 854 196Q824 166 768 148Q712 130 639 130Q590 130 544 140Q495 151 457 174Q417 197 390 237Q365 274 360 333H175Q175 263 206.0 200.0Q237 137 298 88Q353 42 443 10Q528 -20 639 -20Q733 -20 816 3Q895 25 955 68Q1012 109 1046 169Q1078 226 1078 300Q1078 368 1050.0 418.0Q1022 468 967 508Q908 549 834 574Q753 602 655 622Q577 637 530 653Q479 670 451 689Q421 708 409.0 734.0Q397 760 397.0 791.0Q397 822 412.0 851.0Q427 880 457 902Q484 923 530 937Q573 950 634 950Q692 950 736 934Q784 916 814 892Q845 867 864 832Q882 799 882 764H1067Q1067 832 1036 896Q1006 957 950 1004Q895 1050 814.0 1076.0Q733 1102 634 1102Q540 1102 464 1077Q383 1051 330 1009Q275 966 243 908Q212 852 212 785Q212 719 242.0 668.0Q272 617 327 580Q382 542 458 515Q532 489 627 469Q702 454 754 436Q803 419 836 395Q866 373 880 346Q893 320 893 287Z"/><path transform="translate(23351 0)" d="M612 1344H426V1082H142V939H426V351Q426 248 452 180Q479 109 525 66Q572 21 634 0Q694 -20 768 -20Q815 -20 854 -16Q899 -11 937 -4Q976 4 1009 14Q1043 25 1065 38L1039 169Q1033 167 1018.0 164.5Q1003 162 996 160Q962 152 939 149L876 140Q844 137 814 137Q770 137 736 147Q699 158 672 182Q645 204 628 247Q612 286 612 351V939H1024V1082H612Z"/><path transform="translate(24580 0)" d="M887 0H1055V1082H869V306Q854 271 832.0 242.0Q810 213 779 191Q741 164 694 150Q648 136 583 136Q532 136 490 150Q451 163 421 199Q392 234 379 291Q365 352 365 437V1082H180V439Q180 316 206 232Q234 143 282 89Q332 32 400 6Q466 -20 554 -20Q662 -20 741 24Q821 69 876 149Z"/><path transform="translate(25809 0)" d="M543 0H684L1125 1082H936L633 266L615 199L598 266L288 1082H98Z"/><path transform="translate(27038 0)" d="M278 0H424L591 663L618 831L646 663L815 0H961L1191 1082H1027L907 392L880 222L851 392L679 1082H560L387 392L360 237L338 392L212 1082H48Z"/><path transform="translate(28267 0)" d="M621 681 335 1082H121L524 547L110 0H326L625 412L924 0H1138L724 547L1127 1082H910Z"/><path transform="translate(29496 0)" d="M261 -437Q334 -437 390 -410Q448 -382 488 -343Q530 -302 560 -256Q584 -219 608 -167L1157 1082H950L671 380L620 253L572 384L275 1082H68L534 51L460 -93Q441 -128 432 -144Q412 -179 391 -204Q364 -234 334 -254Q302 -275 265 -275Q242 -275 226 -274Q218 -274 202.0 -272.5Q186 -271 177 -270L147 -421Q157 -424 200 -431Q235 -437 261 -437Z"/><path transform="translate(30725 0)" d="M396 151 1049 951V1082H169V929H806L160 136V0H1085V151Z"/></g><g transform="translate(148 364) scale(0.015625 -0.015625)" fill="#ABB2BF"><path transform="translate(0 0)" d="M433 538 628 1170 820 538ZM869 377 984 0H1168L706 1456H551L81 0H266L383 377Z"/><path transform="translate(1229 0)" d="M358 835V1298H611Q669 1296 716 1284Q769 1270 808 1244Q846 1216 870.0 1173.0Q894 1130 894 1069Q894 1013 870 969Q846 926 807 897Q768 867 718 852Q667 836 616 835ZM358 681H653Q711 680 763 661Q815 643 852 610Q892 573 912 528Q932 482 932 426Q932 422 932 418Q932 357 908 309Q883 259 845 228Q802 193 753 176Q702 159 643 157H358ZM172 0H638Q734 2 818 29Q906 58 973 110Q1039 162 1080 240Q1119 315 1119 413Q1119 416 1119 420Q1119 487 1100.0 541.0Q1081 595 1045 642Q1012 682 961 717Q912 750 855 764V767Q906 789 946 816Q979 839 1014 880Q1044 918 1062 964Q1078 1006 1080 1068Q1080 1072 1080 1075Q1080 1172 1041 1243Q1000 1318 934 1363Q866 1410 781 1432Q696 1454 605 1456H172Z"/><path transform="translate(2458 0)" d="M1117 438H932Q923 372 901 316Q877 256 842 218Q803 174 752 153Q697 130 625 130Q560 130 508 152Q459 173 421 211Q384 248 360 297Q336 346 321 402Q306 458 300 514Q293 581 293 626V831Q293 876 300 942Q306 1000 321 1055Q335 1108 360 1159Q383 1206 422 1245Q459 1284 508 1304Q559 1325 625 1325Q696 1325 752 1300Q804 1277 842 1233Q878 1191 901 1133Q923 1078 932 1010H1117Q1105 1116 1068 1200Q1031 1286 968 1348Q908 1408 820.0 1442.0Q732 1476 625 1476Q536 1476 461 1450Q387 1424 331 1380Q275 1337 232 1274Q190 1213 163 1140Q136 1072 122 989Q108 909 107 829V626Q108 546 122 466Q136 383 163 315Q190 244 232 182Q275 119 331 76Q386 32 462 6Q537 -20 625 -20Q728 -20 816 14Q902 47 964.0 108.0Q1026 169 1065 252Q1103 334 1117 438Z"/><path transform="translate(3687 0)" d="M343 1304H492Q563 1302 619 1288Q679 1273 724 1248Q791 1213 836 1156Q882 1098 908 1030Q930 973 940 914Q949 858 951 783V674Q949 601 940 546Q929 483 910 431Q888 368 848 314Q809 262 754 225Q702 190 638 171Q576 153 492 151H343ZM155 0H492Q600 2 688 25Q778 49 850 94Q920 139 973 198Q1028 259 1064 334Q1101 411 1118 492Q1136 578 1136 674V781Q1134 885 1116 969Q1096 1058 1059 1131Q1018 1219 950 1284Q878 1352 792 1392Q730 1421 652 1438Q577 1455 492 1456H155Z"/><path transform="translate(4916 0)" d="M975 673V830H367V1298H1067V1456H182V0H1076V157H367V673Z"/><path transform="translate(6145 0)" d="M984 643V800H378V1298H1085V1456H191V0H378V643Z"/><path transform="translate(7374 0)" d="M1116 191 1113 725H641V569H937L935 242Q912 209 878 188Q846 169 805 156Q768 145 724 140Q692 137 664 137Q654 137 645 137Q577 139 527.0 160.0Q477 181 436 221Q399 255 368 309Q341 355 322 415Q306 464 296 530Q288 585 286 643V814Q286 871 293 926Q301 990 316 1040Q334 1099 357 1146Q383 1198 420 1235Q459 1274 509.0 1296.0Q559 1318 626 1318Q692 1318 747 1296Q799 1275 837.0 1237.0Q875 1199 897 1146Q921 1088 931 1029H1114Q1105 1132 1066 1214Q1027 1297 963 1355Q900 1412 813.0 1444.0Q726 1476 625 1476Q532 1476 459 1449Q384 1422 327 1376Q268 1329 226 1266Q187 1207 156 1128Q127 1054 114 974Q102 900 100 812V643Q102 558 116 480Q130 404 163 327Q193 252 238 190Q282 128 343 81Q402 35 478 8Q551 -18 644 -20Q650 -20 655 -20Q736 -20 814 0Q897 22 965 62Q1012 90 1044 118Q1083 152 1116 191Z"/><path transform="translate(8603 0)" d="M1087 0V1456H912V830H315V1456H141V0H315V673H912V0Z"/><path transform="translate(9832 0)" d="M174 1456V1295H515V160H174V0H1054V160H705V1295H1054V1456Z"/><path transform="translate(11061 0)" d="M857 1456V443Q856 382 836 326Q817 271 780 228Q742 185 691 162Q636 137 573 137Q509 137 458 158Q406 179 369 218Q331 256 310 308Q289 361 286 421H98Q107 317 144 238Q182 157 243 100Q303 43 388 11Q471 -20 573 -20Q676 -20 760 14Q843 47 908.0 111.0Q973 175 1008 257Q1045 344 1046 443V1456Z"/><path transform="translate(12290 0)" d="M523 676 963 0H1188L645 819L1154 1456H929L502 921L361 745V1456H172V0H361V492Z"/><path transform="translate(13519 0)" d="M383 157V1456H198V0H1095V157Z"/><path transform="translate(14748 0)" d="M377 1456H148V0H328V581L313 1168L560 405H666L935 1189L920 581V0H1100V1456H870L614 728Z"/><path transform="translate(15977 0)" d="M1086 0V1456H899L896 370L331 1456H143V0H330L333 1088L898 0Z"/><path transform="translate(17206 0)" d="M938 812V644Q936 573 932 535Q926 483 912 423Q895 361 874 316Q851 267 815 228Q778 188 730 166Q679 143 615 143Q552 143 501 166Q453 188 416 228Q380 265 356 317Q332 367 317 424Q302 480 296 536Q289 600 288 644V812Q289 856 296 920Q302 976 317 1032Q330 1084 355 1138Q378 1187 415 1227Q453 1267 500 1288Q551 1311 613 1311Q676 1311 727 1288Q776 1266 812 1228Q848 1189 872 1138Q897 1085 911 1033Q925 974 931 920Q936 869 938 812ZM1121 644V810Q1119 892 1108 968Q1097 1042 1069 1122Q1041 1197 1002 1260Q962 1324 905 1373Q850 1421 776 1448Q700 1476 613 1476Q525 1476 450 1448Q377 1421 322 1373Q265 1322 226 1260Q184 1193 159 1121Q132 1048 120 968Q107 885 106 810V644Q108 560 120 487Q134 405 160 334Q184 264 227 196Q267 132 324 83Q379 35 452 8Q527 -20 615.0 -20.0Q703 -20 778 8Q851 35 906 83Q962 132 1002 195Q1045 263 1069 333Q1097 414 1108 486Q1119 562 1121 644Z"/><path transform="translate(18435 0)" d="M376 736V1304H663Q728 1302 782 1283Q835 1264 876 1226Q916 1188 938 1136Q960 1085 960 1017Q960 950 938 900Q915 847 875 812Q833 775 781 756Q730 738 663 736ZM376 584H663Q761 586 848 614Q937 643 1002 698Q1067 752 1106 834Q1145 915 1145 1019Q1145 1124 1106 1205Q1067 1287 1002 1341Q937 1396 848 1425Q758 1455 663 1456H191V0H376Z"/><path transform="translate(19664 0)" d="M950 793V663Q948 588 944 548Q939 494 924 431Q910 375 885 321Q861 268 824 230Q787 190 736 166Q687 143 615 143Q545 143 496 166Q443 191 407 230Q370 270 346 322Q319 381 306 432Q289 497 284 550Q278 610 278 663V793Q278 846 284 906Q289 959 306 1024Q319 1075 346 1133Q370 1185 407 1225Q445 1264 495 1288Q544 1311 614 1311Q682 1311 734 1288Q785 1265 823 1226Q860 1186 884 1134Q911 1076 924 1025Q939 962 944 908Q948 868 950 793ZM1134 663V791Q1132 879 1120 954Q1107 1035 1081 1112Q1054 1187 1012 1254Q968 1323 914 1370Q854 1421 782 1448Q708 1476 614.0 1476.0Q520 1476 446 1448Q373 1420 315 1370Q257 1321 216.0 1254.0Q175 1187 148 1111Q122 1036 108 953Q96 877 94 791V663Q96 576 108 502Q122 417 148 344Q175 269 217 202Q260 134 317 86Q374 37 448 8Q520 -20 615 -20Q655 -20 684 -16Q715 -12 749 -2L1037 -246L1164 -125L913 84Q968 130 1012 200Q1054 267 1081 342Q1107 419 1120 500Q1132 576 1134 663Z"/><path transform="translate(20893 0)" d="M365 746V1304H608Q677 1302 732.0 1285.0Q787 1268 829 1232Q871 1194 893 1144Q916 1090 916 1021Q916 955 892 904Q869 855 827 819Q784 783 730 766Q673 747 613 746ZM656 594 942 0H1137L1138 12L829 634Q890 660 939 697Q991 736 1025 782Q1061 830 1082 889Q1102 945 1102 1019Q1102 1131 1064 1210Q1024 1293 958 1346Q891 1400 800 1427Q708 1455 608 1456H181V0H365V594Z"/><path transform="translate(22122 0)" d="M936 368Q936 308 910 264Q886 223 843.0 193.0Q800 163 750 150Q699 137 643 137Q578 137 518.0 156.0Q458 175 416 211Q373 247 344 300Q316 351 307 420H118Q121 327 160 250Q200 171 264 116Q338 49 438 15Q540 -20 643 -20Q730 -20 817 4Q903 28 973 78Q1043 127 1086 199Q1129 272 1129 370Q1129 467 1088 541Q1047 616 982 666Q918 719 834 756Q757 790 672 817Q640 827 568 852Q512 872 465 902Q419 931 386 976Q356 1018 354 1082Q354 1140 378 1184Q404 1230 441 1258Q481 1288 530 1303Q581 1318 634 1318Q702 1318 752 1298Q807 1276 843 1240Q883 1200 904 1152Q928 1098 935 1037H1125Q1124 1135 1082 1218Q1042 1298 973 1356Q907 1412 817.0 1444.0Q727 1476 634 1476Q545 1476 463 1450Q379 1424 311 1372Q245 1322 202 1247Q161 1175 161.0 1079.0Q161 983 202 916Q245 845 310 795Q373 747 454 710Q527 677 611 649Q664 632 722 611Q781 589 827 559Q877 526 906 481Q936 434 936 368Z"/><path transform="translate(23351 0)" d="M1156 1298V1456H76V1298H526V0H706V1298Z"/><path transform="translate(24580 0)" d="M1088 1456H909L906 470Q904 405 885 345Q865 285 830 239Q790 190 739 164Q685 137 614 137Q541 137 488 165Q433 194 398 239Q362 284 342 345Q323 405 321 470L317 1456H141L139 470Q140 368 175 278Q208 192 272 123Q333 56 421.0 18.0Q509 -20 614 -20Q720 -20 805 18Q893 57 955 124Q1018 190 1054.0 279.0Q1090 368 1090 470Z"/><path transform="translate(25809 0)" d="M531 0H692L1151 1456H954L632 371L610 298L589 369L269 1456H71Z"/><path transform="translate(27038 0)" d="M250 0H440L618 1035L629 1097L639 1036L816 0H1005L1182 1456H1007L902 454L896 394L885 453L708 1456H547L371 454L360 394L354 452L249 1456H73Z"/><path transform="translate(28267 0)" d="M625 885 315 1456H98L521 734L87 0H306L629 582L951 0H1167L734 734L1157 1456H939Z"/><path transform="translate(29496 0)" d="M603 725 272 1456H61L514 543L517 0H689L692 543L1145 1456H935Z"/><path transform="translate(30725 0)" d="M325 157 1052 1315 1050 1456H127V1298H839L114 144L116 0H1079V157Z"/><path transform="translate(33183 0)" d="M902 518Q902 415 880 332Q859 253 813 204Q779 168 730 149Q682 130 618 130Q558 130 510 148Q460 167 428 199Q390 235 368 290Q345 347 336 419L902 852V782V724ZM331 594V645V695V939Q331 1040 352 1118Q373 1197 414 1245Q447 1282 500 1304Q551 1325 616 1325Q682 1325 730 1306Q780 1286 814 1249Q849 1211 870 1156Q890 1102 898 1029ZM1088 557V898Q1088 1034 1056 1144Q1025 1252 964 1326Q903 1399 816.0 1438.0Q729 1477 616 1477Q505 1477 418 1438Q329 1398 270 1326Q209 1253 177 1144Q145 1034 145 898V557Q145 420 177 310Q208 204 270 130Q331 55 419 18Q509 -20 618 -20Q729 -20 817 18Q903 55 964.0 130.0Q1025 205 1056 310Q1088 420 1088 557Z"/><path transform="translate(34412 0)" d="M774 0V1456H759L208 1244V1075L589 1220V0Z"/><path transform="translate(35641 0)" d="M1067 0V151H336L727 575Q775 627 832 696Q880 755 919 818Q953 873 978 944Q1000 1006 1000 1072Q1000 1160 970.0 1233.0Q940 1306 882.0 1361.0Q824 1416 742 1446Q659 1476 557 1476Q445 1476 358 1440Q269 1403 210 1343Q149 1282 117.0 1200.0Q85 1118 85 1027H271Q271 1098 288 1150Q306 1205 342 1244Q377 1283 430 1303Q484 1324 557 1324Q618 1324 664.0 1304.0Q710 1284 746 1248Q778 1215 796 1166Q814 1118 814 1064Q814 1022 803 978Q794 942 766 891Q740 844 697 789Q648 726 590 663L113 133V0Z"/><path transform="translate(36870 0)" d="M390 817V667H522Q593 667 648 651Q708 634 747 602Q788 569 810 520Q832 472 832 402Q832 334 812 282Q793 233 757 198Q723 165 670.0 148.0Q617 131 556 131Q493 131 442 149Q389 168 354 200Q318 233 298 280Q279 325 279 384H94Q94 288 130 213Q165 141 229 86Q289 35 376 7Q460 -20 556 -20Q655 -20 738 8Q824 37 885 92Q948 148 982 225Q1017 306 1017 406Q1017 460 1006 507Q994 559 966.0 604.0Q938 649 890 687Q842 724 771 747Q830 773 872 810Q918 851 942 890Q968 931 982 977Q995 1020 995 1064Q995 1164 963 1242Q932 1318 873 1371Q815 1423 734 1450Q656 1476 555 1476Q456 1476 372 1444Q287 1411 230 1359Q171 1303 138 1230Q106 1159 106 1074H292Q292 1132 311 1177Q330 1223 365 1256Q397 1287 448 1306Q496 1324 555 1324Q613 1324 664 1308Q712 1293 743 1262Q776 1230 793 1182Q810 1133 810 1068Q810 1012 791 967Q772 921 736 888Q698 855 646 836Q593 817 522 817Z"/><path transform="translate(38099 0)" d="M280 489 709 1154 739 1210V489ZM924 489V1456H727L75 447V338H739V0H924V338H1127V489Z"/><path transform="translate(39328 0)" d="M240 730 388 692Q419 719 436 731Q462 749 487 760Q513 772 548 778Q586 785 627 785Q698 785 751 760Q806 734 842 692Q877 651 898 589Q918 529 918 462Q918 388 900 326Q882 263 849 222Q814 178 763 154Q714 131 646 131Q528 131 454 195Q379 259 363 383H187Q198 281 236 206Q274 132 338 80Q400 30 478.0 5.0Q556 -20 646 -20Q762 -20 848 16Q932 51 991 118Q1046 182 1075 271Q1103 358 1103 464Q1103 574 1073 664Q1044 752 987 818Q931 881 851 916Q770 951 670 951Q589 951 531 932Q468 912 428 888L469 1276H1060V1456H313Z"/><path transform="translate(40557 0)" d="M614 801Q682 801 731 773Q781 744 814 698Q846 654 863 590Q879 532 879 466Q879 390 862 332Q844 270 810.0 227.0Q776 184 725 158Q676 133 610 133Q554 133 503 160Q451 188 413 237Q373 290 351 362Q328 439 328 533V595Q344 639 374 679Q402 716 441 744Q478 770 523 786Q566 801 614 801ZM856 1457H840Q683 1457 561.0 1414.0Q439 1371 352 1284Q228 1160 184 983Q141 810 141 625V538Q141 433 173 326Q204 224 270 142Q329 69 413 25Q498 -20 610.0 -20.0Q722 -20 806 19Q889 58 947 126Q1003 193 1032 283Q1061 375 1061 475Q1061 564 1037 650Q1013 737 962 804Q910 873 832.0 914.0Q754 955 644 955Q589 955 548 944Q501 931 464 913Q428 896 390.0 866.0Q352 836 330 809Q336 908 368 996Q401 1087 464 1153Q524 1216 616 1254Q706 1291 840 1291H856Z"/><path transform="translate(41786 0)" d="M1096 1352V1456H112V1294H900L299 0H493Z"/><path transform="translate(43015 0)" d="M884 1073Q884 1018 866 971Q848 925 816 893Q783 860 738 842Q696 825 640.0 825.0Q584 825 542 842Q496 860 465 893Q432 924 414 970Q397 1012 397 1073Q397 1132 414 1176Q432 1222 464 1256Q493 1287 540 1306Q584 1324 638.0 1324.0Q692 1324 737 1306Q780 1289 815 1254Q850 1216 866 1174Q884 1128 884 1073ZM918 397Q918 331 898 284Q878 236 841 201Q804 167 753.0 149.0Q702 131 641 131Q577 131 526 149Q473 168 438 201Q401 237 382 284Q363 332 363 397Q363 459 382 509Q401 558 438 597Q475 634 525 653Q577 673 639 673Q700 673 752 653Q801 634 840 597Q877 560 898 509Q918 460 918 397ZM1070 1076Q1070 1171 1037 1246Q1004 1320 946 1371Q887 1423 809 1449Q730 1476 638 1476Q544 1476 466 1449Q387 1422 332 1371Q274 1319 243 1246Q211 1170 211 1076Q211 1022 226 973Q241 924 268 883Q295 841 334 808Q376 773 421 750Q364 726 320 690Q274 653 243 609Q210 560 194 508Q177 452 177 393Q177 292 213.0 216.0Q249 140 312 87Q374 34 458.0 7.0Q542 -20 641 -20Q734 -20 821 8Q904 35 968 88Q1030 141 1066 217Q1103 296 1103 393Q1103 457 1086 508Q1069 560 1036 608Q1004 653 958 690Q917 722 856 749Q888 766 916 785Q941 802 967 828Q1014 875 1042 940Q1068 1002 1070 1076Z"/><path transform="translate(44244 0)" d="M594 640Q528 640 478 670Q426 702 396 747Q364 794 347 856Q331 916 331 982Q331 1053 349 1116Q366 1177 402 1225Q437 1271 486 1296Q536 1322 601 1322Q658 1322 708 1294Q760 1265 798 1214Q836 1162 858 1085Q881 1007 881 912V852Q865 806 834 766Q805 728 768 700Q729 670 686 656Q638 640 594 640ZM373 164H354V-1H373Q553 -1 678.0 48.0Q803 97 875 178Q993 310 1029 480Q1065 651 1065 820V887Q1065 1006 1032 1126Q999 1245 933 1325Q879 1391 794 1434Q712 1476 600 1476Q487 1476 404 1436Q319 1395 263.0 1327.0Q207 1259 178.0 1166.0Q149 1073 149 972Q149 884 173.0 797.0Q197 710 248 641Q298 573 378.0 530.0Q458 487 564 487Q624 487 668.0 498.0Q712 509 754 530Q793 550 824 576Q854 602 879 633V631Q875 540 850 453Q826 367 757 292Q701 232 606 198Q510 164 373 164Z"/></g><g transform="translate(148 404) scale(0.015625 -0.015625)" fill="#E06C75"><path transform="translate(0 0)" d="M469 547 538 901H802L733 547ZM707 410 627 0H770L850 410H1102V547H876L945 901H1177V1040H972L1054 1456H911L829 1040H565L647 1456H504L422 1040H137V901H395L326 547H61V410H300L220 0H363L443 410Z"/><path transform="translate(2458 0)" d="M857 1456V443Q856 382 836 326Q817 271 780 228Q742 185 691 162Q636 137 573 137Q509 137 458 158Q406 179 369 218Q331 256 310 308Q289 361 286 421H98Q107 317 144 238Q182 157 243 100Q303 43 388 11Q471 -20 573 -20Q676 -20 760 14Q843 47 908.0 111.0Q973 175 1008 257Q1045 344 1046 443V1456Z"/><path transform="translate(3687 0)" d="M463 155Q422 169 395 194Q367 219 354.0 252.0Q341 285 341 326Q341 368 356 401Q370 433 402 458Q442 491 516.0 508.0Q590 525 683 525H855V306Q837 271 811 244Q784 215 745 192Q703 168 659 155Q611 141 558.0 141.0Q505 141 463 155ZM885 0H1078V16Q1061 58 1050 122Q1040 179 1040 236V739Q1040 830 1007.0 898.0Q974 966 917 1012Q857 1058 780 1080Q702 1102 609 1102Q506 1102 428 1074Q349 1046 294 1001Q237 953 208 898Q180 844 178 782H364Q364 817 380.0 848.0Q396 879 427 902Q460 926 500 939Q545 953 599 953Q658 953 706 938Q752 924 786 896Q819 867 837 829Q855 790 855 741V656H653Q537 656 448 634Q356 612 292 568Q228 523 192 456Q156 388 156 300Q156 230 182 174Q210 114 258 73Q303 32 376 5Q444 -20 531 -20Q582 -20 631 -9Q678 2 720 21Q767 44 796 65Q830 91 858 118Q860 93 868 52Q874 23 885 0Z"/><path transform="translate(4916 0)" d="M902 550V529Q902 450 884 378Q866 304 831 251Q797 198 739 164Q684 131 606 131Q557 131 518 143Q478 155 447 176Q422 192 397 220Q375 245 358 276V797Q378 832 402 859Q425 885 459 906Q485 924 524 935Q558 945 604 945Q682 945 738 913Q793 882 831 827Q866 774 884 700Q902 628 902 550ZM173 -416H358V104Q374 86 401 64Q425 44 450 30Q493 6 546 -7Q598 -20 662 -20Q764 -20 844 22Q922 63 977 138Q1030 210 1059 312Q1087 411 1087 529V550Q1087 672 1059 772Q1030 874 977 947Q923 1020 843.0 1061.0Q763 1102 659 1102Q599 1102 548 1090Q500 1079 455 1053Q424 1036 399 1014Q371 989 351 964L342 1082H173Z"/><path transform="translate(6145 0)" d="M463 155Q422 169 395 194Q367 219 354.0 252.0Q341 285 341 326Q341 368 356 401Q370 433 402 458Q442 491 516.0 508.0Q590 525 683 525H855V306Q837 271 811 244Q784 215 745 192Q703 168 659 155Q611 141 558.0 141.0Q505 141 463 155ZM885 0H1078V16Q1061 58 1050 122Q1040 179 1040 236V739Q1040 830 1007.0 898.0Q974 966 917 1012Q857 1058 780 1080Q702 1102 609 1102Q506 1102 428 1074Q349 1046 294 1001Q237 953 208 898Q180 844 178 782H364Q364 817 380.0 848.0Q396 879 427 902Q460 926 500 939Q545 953 599 953Q658 953 706 938Q752 924 786 896Q819 867 837 829Q855 790 855 741V656H653Q537 656 448 634Q356 612 292 568Q228 523 192 456Q156 388 156 300Q156 230 182 174Q210 114 258 73Q303 32 376 5Q444 -20 531 -20Q582 -20 631 -9Q678 2 720 21Q767 44 796 65Q830 91 858 118Q860 93 868 52Q874 23 885 0Z"/><path transform="translate(7374 0)" d="M174 0H359V776Q380 813 404 840Q431 870 459 891Q492 913 540 930Q584 945 635 945Q693 945 740 931Q786 917 817 886Q847 856 864 805Q880 757 880 683V0H1065V687Q1065 796 1038 874Q1010 954 963 1003Q914 1054 844 1078Q775 1102 690 1102Q622 1100 570 1084Q516 1067 466 1034Q436 1014 406 984Q374 952 353 922L340 1082H174Z"/><path transform="translate(8603 0)" d="M628 950Q698 950 750 924Q801 898 836 856Q868 817 889 756Q908 700 908 649V640H326Q336 714 364 772Q391 829 432 870Q472 909 522 930Q569 950 628 950ZM652 -20Q808 -20 918 44Q1025 106 1079 189L966 277Q916 212 838 171Q762 131 662 131Q585 131 525 159Q460 189 419 236Q376 282 352 342Q327 404 320 481V488H1093V571Q1093 682 1064.0 781.0Q1035 880 978 950Q918 1022 832.0 1062.0Q746 1102 628 1102Q536 1102 446 1064Q360 1028 289 955Q219 884 177.0 780.0Q135 676 135 545V503Q135 391 173 294Q209 201 279 128Q346 58 442.0 19.0Q538 -20 652 -20Z"/><path transform="translate(9832 0)" d="M893 287Q893 259 883 238Q872 214 854 196Q824 166 768 148Q712 130 639 130Q590 130 544 140Q495 151 457 174Q417 197 390 237Q365 274 360 333H175Q175 263 206.0 200.0Q237 137 298 88Q353 42 443 10Q528 -20 639 -20Q733 -20 816 3Q895 25 955 68Q1012 109 1046 169Q1078 226 1078 300Q1078 368 1050.0 418.0Q1022 468 967 508Q908 549 834 574Q753 602 655 622Q577 637 530 653Q479 670 451 689Q421 708 409.0 734.0Q397 760 397.0 791.0Q397 822 412.0 851.0Q427 880 457 902Q484 923 530 937Q573 950 634 950Q692 950 736 934Q784 916 814 892Q845 867 864 832Q882 799 882 764H1067Q1067 832 1036 896Q1006 957 950 1004Q895 1050 814.0 1076.0Q733 1102 634 1102Q540 1102 464 1077Q383 1051 330 1009Q275 966 243 908Q212 852 212 785Q212 719 242.0 668.0Q272 617 327 580Q382 542 458 515Q532 489 627 469Q702 454 754 436Q803 419 836 395Q866 373 880 346Q893 320 893 287Z"/><path transform="translate(11061 0)" d="M628 950Q698 950 750 924Q801 898 836 856Q868 817 889 756Q908 700 908 649V640H326Q336 714 364 772Q391 829 432 870Q472 909 522 930Q569 950 628 950ZM652 -20Q808 -20 918 44Q1025 106 1079 189L966 277Q916 212 838 171Q762 131 662 131Q585 131 525 159Q460 189 419 236Q376 282 352 342Q327 404 320 481V488H1093V571Q1093 682 1064.0 781.0Q1035 880 978 950Q918 1022 832.0 1062.0Q746 1102 628 1102Q536 1102 446 1064Q360 1028 289 955Q219 884 177.0 780.0Q135 676 135 545V503Q135 391 173 294Q209 201 279 128Q346 58 442.0 19.0Q538 -20 652 -20Z"/></g><g transform="translate(148 444) scale(0.015625 -0.015625)" fill="#ABB2BF"><path transform="translate(0 0)" d="M382 163Q439 106 537 106Q654 106 767 188Q694 438 683 781Q522 704 424.0 582.0Q326 460 326 320Q326 219 382 163ZM1142 861Q1108 863 1067 863Q934 863 808 826Q813 677 830 538Q848 391 873 288Q1050 495 1142 861ZM1432 925Q1593 863 1684.0 744.0Q1775 625 1775 461Q1775 225 1600 86Q1426 -52 1112 -69L1081 65Q1355 78 1496 179Q1636 279 1636 467Q1636 616 1539 712Q1441 809 1269 843Q1207 589 1100 395Q990 195 847 86Q702 -25 533 -25Q382 -25 288.0 66.0Q194 157 194 310Q194 503 328.0 666.0Q462 829 679 914V920Q679 1017 683 1189H661Q466 1189 239 1194L243 1318Q507 1310 657 1310H686Q692 1474 704 1593L832 1587Q820 1474 814 1312Q1322 1319 1636 1347L1640 1222Q1505 1212 1236 1202Q979 1192 810 1191Q806 1038 806 955Q943 987 1069 987Q1270 987 1432 925Z"/><path transform="translate(1849 0)" d="M1651 328Q1625 590 1527 834Q1428 1081 1273 1285L1389 1361Q1549 1153 1657 884Q1762 624 1791 345ZM241 1240 243 1418 386 1412Q381 1255 381 1202Q381 878 418 646Q456 408 517 286Q578 163 655 163Q722 163 768 272Q814 380 847 612L979 584Q938 287 860 156Q780 22 657 22Q457 22 349.0 334.0Q241 646 241 1240Z"/><path transform="translate(3698 0)" d="M280 924Q558 996 751 1032Q950 1069 1089 1069Q1323 1069 1458.0 946.0Q1593 823 1593 600Q1593 346 1368 186Q1142 25 690 -31L655 104Q1449 205 1449 602Q1449 761 1355 848Q1262 934 1089 934Q841 934 314 788ZM1479 1328Q1008 1394 510 1396L524 1532Q1007 1526 1495 1463Z"/><path transform="translate(5547 0)" d="M1810 10Q1646 -37 1457 -37Q1291 -37 1216 42Q1139 123 1138 294Q1138 410 1112 449Q1085 490 1020 490Q908 490 755 361Q690 307 469 110L279 -57L188 47L1222 963H341V1094H1440V981L928 532L936 522Q988 555 1037 572Q1090 590 1124 590Q1194 590 1232 536Q1269 482 1271 359Q1272 255 1290 196Q1307 139 1350 116Q1395 92 1481 92Q1632 92 1797 143ZM1459 1345Q1019 1406 559 1430L575 1563Q1017 1542 1477 1479Z"/><path transform="translate(7396 0)" d="M681 653Q515 585 419 486Q322 386 322 275Q322 188 382.0 140.0Q442 92 526 92Q602 92 642 132Q681 171 681 255ZM1357 1442Q1471 1387 1604 1300Q1735 1214 1826 1136L1751 1024Q1663 1100 1528 1188Q1401 1271 1283 1328ZM1446 804Q1581 748 1656 646Q1730 545 1730 418Q1730 213 1612 95Q1495 -22 1296 -22Q1133 -22 979 37L1014 169Q1156 112 1296 112Q1437 112 1514.0 188.0Q1591 264 1591 414Q1591 560 1468 648Q1346 736 1128 736Q962 736 812 696V257Q812 -37 522 -37Q445 -37 366 -2Q288 32 237 103Q186 173 186 269Q186 427 322 569Q457 710 681 788V1128Q516 1120 353 1120Q268 1120 214 1122V1245H310Q494 1245 681 1253V1571H812V1261Q1012 1273 1175 1296L1187 1171Q1022 1146 812 1136V826Q961 861 1128 861Q1308 861 1446 804Z"/><path transform="translate(10474 0)" d="M316 90Q510 167 626 257Q741 347 795 472Q849 598 849 781V1063H990V779Q990 566 926 417Q862 267 730 158Q598 48 388 -37ZM1069 771Q1264 862 1398 994Q1534 1128 1597 1283H222V1416H1742V1287Q1678 1093 1525 928Q1376 767 1155 653Z"/><path transform="translate(12323 0)" d="M1699 1422Q1466 1177 1147 973V-59H1002V883Q656 677 253 533L196 665Q596 800 964 1022Q1341 1249 1604 1524Z"/><path transform="translate(14172 0)" d="M1034 1245H1683Q1677 878 1575 621Q1473 365 1261.0 201.0Q1049 37 710 -47L651 90Q952 164 1138.0 294.0Q1324 424 1420 626Q1514 824 1532 1112H402V655H259V1245H890V1567H1034Z"/><path transform="translate(16021 0)" d="M1781 127H180V261H894V1220H257V1353H1702V1220H1034V261H1781Z"/><path transform="translate(17870 0)" d="M1781 1208V1079H1332V102Q1332 -37 1179 -37H838L808 94H1194V1061H1183Q1116 844 853.0 605.0Q590 366 259 182L180 306Q777 629 1108 1079H239V1208H1194V1565H1332V1208Z"/><path transform="translate(20948 0)" d="M526 547Q467 369 386 198Q303 22 196 -129L98 -47Q288 212 416 592ZM1249 894H1655V1098H1249ZM749 1098V894H1134V1098ZM424 828Q251 967 76 1069L143 1167Q320 1070 494 924ZM1273 263Q1319 176 1469 103Q1620 30 1901 -43L1861 -155Q1533 -66 1373 30Q1216 124 1198 259H1185Q1167 118 1002 22Q841 -72 488 -155L451 -43Q751 24 907 98Q1064 172 1110 263H537V373H1134V535H588V641H1134V794H634V1196H1771V794H1249V641H1826V535H1249V373H1877V263ZM555 1408 496 1322Q328 1456 184 1536L249 1634Q403 1550 555 1426V1485H875V1642H994V1485H1424V1642H1544V1485H1879V1385H1544V1257H1424V1385H994V1257H875V1385H555Z"/><path transform="translate(22797 0)" d="M1859 579V465H1051V18Q1051 -52 1020.0 -84.0Q989 -116 916 -116H543L510 2H926V465H102V579H926V734Q1212 843 1369 981H400V1091H1534V983Q1452 895 1328.0 815.0Q1204 735 1051 671V579ZM1697 1298H265V1006H143V1412H902V1638H1028V1412H1818V1006H1697Z"/><path transform="translate(24646 0)" d="M430 732V149H1534V732ZM1534 849V1414H430V849ZM298 -126V1534H1663V-126H1534V27H430V-126Z"/><path transform="translate(26495 0)" d="M1028 1057V339H1446V224H1028V-147H900V224H508V339H900V1057H887Q862 847 690 638Q519 429 165 180L84 284Q408 506 598 720Q787 933 855 1163H120V1283H900V1638H1028V1283H1842V1163H1073Q1142 939 1343 724Q1543 511 1877 282L1802 178Q1433 436 1250 644Q1066 853 1041 1057Z"/><path transform="translate(28344 0)" d="M643 381H284V69H643ZM1661 422H1045V75H1661ZM284 -149H173V488H753V-43H284ZM1045 -145H928V528H1779V-145H1661V-33H1045ZM749 649H175V757H749ZM175 1026H749V916H175ZM1604 1136H1255L1185 822H1604ZM824 1187H88V1300H824ZM1720 1242V822H1875V714H838V822H1065L1136 1136H902V1242H1159L1210 1469H859V1575H1840V1469H1330L1279 1242ZM161 1577H759V1467H161Z"/><path transform="translate(31422 0)" d="M82 33Q244 165 305 319Q367 476 367 716V1100H492V716Q492 446 416 256Q341 69 169 -73ZM539 783Q730 986 769 1310H61V1436H890V1312Q844 926 626 685Z"/><path transform="translate(32721 0)" d="M930 1491Q802 1234 634 1022V-69H504V869Q317 666 124 530L47 645Q271 801 475 1038Q678 1274 820 1563Z"/><path transform="translate(34020 0)" d="M549 1275H875Q874 896 825 649Q777 405 669.0 234.0Q561 63 369 -78L284 31Q454 155 552 298Q648 438 695 644Q741 844 747 1153H220V667H96V1275H428V1577H549Z"/><path transform="translate(35319 0)" d="M924 63H57V188H424V1298H78V1424H902V1298H555V188H924Z"/><path transform="translate(36618 0)" d="M936 1216V1094H710V-92H592V1038H581Q513 569 129 94L33 196Q382 614 520 1094H102V1216H588V1579H710V1216Z"/></g><g transform="translate(148 484) scale(0.015625 -0.015625)" fill="#ABB2BF"><path transform="translate(0 0)" d="M1291 341H737V424H979V1089H971L761 873L696 926L922 1163H1081V424H1291ZM1400 18Q1594 132 1706 324Q1818 517 1818.0 745.0Q1818 973 1706 1166Q1594 1358 1400 1472Q1207 1585 981 1585Q754 1585 561.0 1472.0Q368 1359 256 1166Q143 972 143.0 745.0Q143 518 256 324Q368 131 561 18Q752 -94 981 -94Q1209 -94 1400 18ZM80 745Q80 988 202 1196Q323 1403 530 1524Q738 1646 981 1646Q1223 1646 1431.0 1524.0Q1639 1402 1760.0 1196.0Q1881 990 1881 745Q1881 501 1760 295Q1638 88 1431 -34Q1225 -155 981 -155Q736 -155 530.0 -34.0Q324 87 202.0 295.0Q80 503 80 745Z"/><path transform="translate(3078 0)" d="M824 418H1259V331H714V426L998 694Q1061 751 1092 804Q1122 855 1122 912V938Q1122 1001 1080.0 1040.0Q1038 1079 969 1079Q836 1079 792 938L704 971Q729 1059 798.0 1113.0Q867 1167 977 1167Q1095 1167 1163 1102Q1230 1038 1230 928Q1230 840 1183 770Q1138 703 1051 630ZM1400 18Q1594 132 1706 324Q1818 517 1818.0 745.0Q1818 973 1706 1166Q1594 1358 1400 1472Q1207 1585 981 1585Q754 1585 561.0 1472.0Q368 1359 256 1166Q143 972 143.0 745.0Q143 518 256 324Q368 131 561 18Q752 -94 981 -94Q1209 -94 1400 18ZM1881 745Q1881 501 1760 295Q1638 88 1431 -34Q1225 -155 981 -155Q736 -155 530.0 -34.0Q324 87 202.0 295.0Q80 503 80 745Q80 988 202 1196Q323 1403 530 1524Q738 1646 981 1646Q1223 1646 1431.0 1524.0Q1639 1402 1760.0 1196.0Q1881 990 1881 745Z"/><path transform="translate(6156 0)" d="M1059 757Q1143 740 1188 689Q1234 637 1234 555Q1234 445 1158 380Q1084 316 955 316Q768 316 679 457L753 514Q792 453 838 426Q885 398 955 398Q1034 398 1080.0 440.0Q1126 482 1126 551V569Q1126 635 1078 674Q1029 714 945 714H853V800H947Q1022 800 1066.0 836.0Q1110 872 1110 928V947Q1110 1007 1068 1044Q1027 1081 957 1081Q836 1081 773 973L706 1032Q790 1165 961 1165Q1078 1165 1146 1107Q1216 1048 1216 953Q1216 872 1174 826Q1131 778 1059 765ZM1400 18Q1594 132 1706 324Q1818 517 1818.0 745.0Q1818 973 1706 1166Q1594 1358 1400 1472Q1207 1585 981 1585Q754 1585 561.0 1472.0Q368 1359 256 1166Q143 972 143.0 745.0Q143 518 256 324Q368 131 561 18Q752 -94 981 -94Q1209 -94 1400 18ZM1881 745Q1881 501 1760 295Q1638 88 1431 -34Q1225 -155 981 -155Q736 -155 530.0 -34.0Q324 87 202.0 295.0Q80 503 80 745Q80 988 202 1196Q323 1403 530 1524Q738 1646 981 1646Q1223 1646 1431.0 1524.0Q1639 1402 1760.0 1196.0Q1881 990 1881 745Z"/><path transform="translate(9234 0)" d="M1059 1043 759 583H1067V1043ZM1043 1151H1163V583H1285V502H1163V330H1067V502H673V590ZM1400 18Q1594 132 1706 324Q1818 517 1818.0 745.0Q1818 973 1706 1166Q1594 1358 1400 1472Q1207 1585 981 1585Q754 1585 561.0 1472.0Q368 1359 256 1166Q143 972 143.0 745.0Q143 518 256 324Q368 131 561 18Q752 -94 981 -94Q1209 -94 1400 18ZM1881 745Q1881 501 1760 295Q1638 88 1431 -34Q1225 -155 981 -155Q736 -155 530.0 -34.0Q324 87 202.0 295.0Q80 503 80 745Q80 988 202 1196Q323 1403 530 1524Q738 1646 981 1646Q1223 1646 1431.0 1524.0Q1639 1402 1760.0 1196.0Q1881 990 1881 745Z"/><path transform="translate(12312 0)" d="M704 457 779 514Q812 459 862 428Q910 398 977 398Q1059 398 1104.0 446.0Q1149 494 1149 573V592Q1149 668 1106 712Q1062 757 985 757Q923 757 888 740Q850 722 822 686L736 698L765 1151H1218V1061H841L818 737H828Q855 786 899 814Q941 841 1012 841Q1122 841 1188 774Q1255 705 1255 586Q1255 464 1182.0 390.0Q1109 316 977 316Q790 316 704 457ZM1400 18Q1594 132 1706 324Q1818 517 1818.0 745.0Q1818 973 1706 1166Q1594 1358 1400 1472Q1207 1585 981 1585Q754 1585 561.0 1472.0Q368 1359 256 1166Q143 972 143.0 745.0Q143 518 256 324Q368 131 561 18Q752 -94 981 -94Q1209 -94 1400 18ZM80 745Q80 988 202 1196Q323 1403 530 1524Q738 1646 981 1646Q1223 1646 1431.0 1524.0Q1639 1402 1760.0 1196.0Q1881 990 1881 745Q1881 501 1760 295Q1638 88 1431 -34Q1225 -155 981 -155Q736 -155 530.0 -34.0Q324 87 202.0 295.0Q80 503 80 745Z"/><path transform="translate(15390 0)" d="M1107 441Q1153 486 1153 563V592Q1153 669 1107 714Q1060 759 981 759Q900 759 854.0 714.0Q808 669 808 592V565Q808 488 854.0 442.0Q900 396 981 396Q1060 396 1107 441ZM700 618Q700 790 788 928Q876 1067 1008 1151H1149Q1002 1050 916 946Q834 846 810 718L818 716Q843 771 892.0 805.0Q941 839 1016 839Q1124 839 1192 770Q1259 702 1259 586Q1259 465 1184 390Q1110 316 981 316Q844 316 772.0 398.0Q700 480 700 618ZM1400 18Q1594 132 1706 324Q1818 517 1818.0 745.0Q1818 973 1706 1166Q1594 1358 1400 1472Q1207 1585 981 1585Q754 1585 561.0 1472.0Q368 1359 256 1166Q143 972 143.0 745.0Q143 518 256 324Q368 131 561 18Q752 -94 981 -94Q1209 -94 1400 18ZM80 745Q80 988 202 1196Q323 1403 530 1524Q738 1646 981 1646Q1223 1646 1431.0 1524.0Q1639 1402 1760.0 1196.0Q1881 990 1881 745Q1881 501 1760 295Q1638 88 1431 -34Q1225 -155 981 -155Q736 -155 530.0 -34.0Q324 87 202.0 295.0Q80 503 80 745Z"/><path transform="translate(18468 0)" d="M943 330H836L1149 1067H792V894H704V1151H1251V1061ZM1400 18Q1594 132 1706 324Q1818 517 1818.0 745.0Q1818 973 1706 1166Q1594 1358 1400 1472Q1207 1585 981 1585Q754 1585 561.0 1472.0Q368 1359 256 1166Q143 972 143.0 745.0Q143 518 256 324Q368 131 561 18Q752 -94 981 -94Q1209 -94 1400 18ZM80 745Q80 988 202 1196Q323 1403 530 1524Q738 1646 981 1646Q1223 1646 1431.0 1524.0Q1639 1402 1760.0 1196.0Q1881 990 1881 745Q1881 501 1760 295Q1638 88 1431 -34Q1225 -155 981 -155Q736 -155 530.0 -34.0Q324 87 202.0 295.0Q80 503 80 745Z"/><path transform="translate(21546 0)" d="M1159 569Q1159 636 1111 676Q1064 716 981 716Q897 716 850 676Q802 636 802 569V541Q802 475 850 436Q899 396 981 396Q1062 396 1111 436Q1159 475 1159 541ZM818 926Q818 864 862.0 828.0Q906 792 981.0 792.0Q1056 792 1099 828Q1143 864 1143 926V949Q1143 1012 1099 1048Q1054 1085 981 1085Q907 1085 862 1048Q818 1012 818 949ZM1096 755Q1174 739 1221 684Q1267 631 1267 547Q1267 442 1190 380Q1111 316 981.0 316.0Q851 316 772 380Q694 443 694 547Q694 631 740 684Q787 738 865 755V765Q798 783 759.0 831.0Q720 879 720 953Q720 1048 790 1107Q858 1165 981 1165Q1102 1165 1172.0 1107.0Q1242 1049 1242 953Q1242 880 1202 831Q1163 783 1096 765ZM1400 18Q1594 132 1706 324Q1818 517 1818.0 745.0Q1818 973 1706 1166Q1594 1358 1400 1472Q1207 1585 981 1585Q754 1585 561.0 1472.0Q368 1359 256 1166Q143 972 143.0 745.0Q143 518 256 324Q368 131 561 18Q752 -94 981 -94Q1209 -94 1400 18ZM1881 745Q1881 501 1760 295Q1638 88 1431 -34Q1225 -155 981 -155Q736 -155 530.0 -34.0Q324 87 202.0 295.0Q80 503 80 745Q80 988 202 1196Q323 1403 530 1524Q738 1646 981 1646Q1223 1646 1431.0 1524.0Q1639 1402 1760.0 1196.0Q1881 990 1881 745Z"/><path transform="translate(24624 0)" d="M1151 887V916Q1151 992 1105 1038Q1058 1085 981 1085Q901 1085 854 1038Q808 992 808 916V887Q808 810 854.0 765.0Q900 720 981 720Q1061 720 1106.0 766.0Q1151 812 1151 887ZM810 330Q962 431 1044 532Q1127 634 1149 761L1143 765Q1083 641 945 641Q838 641 769.0 710.0Q700 779 700 892Q700 1014 776 1090Q851 1165 979 1165Q1117 1165 1188.0 1082.0Q1259 999 1259 861Q1259 688 1172.0 551.0Q1085 414 951 330ZM1400 18Q1594 132 1706 324Q1818 517 1818.0 745.0Q1818 973 1706 1166Q1594 1358 1400 1472Q1207 1585 981 1585Q754 1585 561.0 1472.0Q368 1359 256 1166Q143 972 143.0 745.0Q143 518 256 324Q368 131 561 18Q752 -94 981 -94Q1209 -94 1400 18ZM80 745Q80 988 202 1196Q323 1403 530 1524Q738 1646 981 1646Q1223 1646 1431.0 1524.0Q1639 1402 1760.0 1196.0Q1881 990 1881 745Q1881 501 1760 295Q1638 88 1431 -34Q1225 -155 981 -155Q736 -155 530.0 -34.0Q324 87 202.0 295.0Q80 503 80 745Z"/><path transform="translate(27702 0)" d="M1518 694V810Q1518 1091 1336 1091Q1153 1091 1153 810V694Q1153 414 1336 414Q1518 414 1518 694ZM938 341H384V424H626V1089H618L408 873L343 926L569 1163H728V424H938ZM1043 751Q1043 1177 1336 1177Q1628 1177 1628 751Q1628 328 1336 328Q1043 328 1043 751ZM1400 18Q1594 132 1706 324Q1818 517 1818.0 745.0Q1818 973 1706 1166Q1594 1358 1400 1472Q1207 1585 981 1585Q754 1585 561.0 1472.0Q368 1359 256 1166Q143 972 143.0 745.0Q143 518 256 324Q368 131 561 18Q752 -94 981 -94Q1209 -94 1400 18ZM80 745Q80 988 202 1196Q323 1403 530 1524Q738 1646 981 1646Q1223 1646 1431.0 1524.0Q1639 1402 1760.0 1196.0Q1881 990 1881 745Q1881 501 1760 295Q1638 88 1431 -34Q1225 -155 981 -155Q736 -155 530.0 -34.0Q324 87 202.0 295.0Q80 503 80 745Z"/></g><g transform="translate(148 524) scale(0.015625 -0.015625)" fill="#E06C75"><path transform="translate(0 0)" d="M469 547 538 901H802L733 547ZM707 410 627 0H770L850 410H1102V547H876L945 901H1177V1040H972L1054 1456H911L829 1040H565L647 1456H504L422 1040H137V901H395L326 547H61V410H300L220 0H363L443 410Z"/><path transform="translate(2458 0)" d="M1086 0V1456H899L896 370L331 1456H143V0H330L333 1088L898 0Z"/><path transform="translate(3687 0)" d="M628 950Q698 950 750 924Q801 898 836 856Q868 817 889 756Q908 700 908 649V640H326Q336 714 364 772Q391 829 432 870Q472 909 522 930Q569 950 628 950ZM652 -20Q808 -20 918 44Q1025 106 1079 189L966 277Q916 212 838 171Q762 131 662 131Q585 131 525 159Q460 189 419 236Q376 282 352 342Q327 404 320 481V488H1093V571Q1093 682 1064.0 781.0Q1035 880 978 950Q918 1022 832.0 1062.0Q746 1102 628 1102Q536 1102 446 1064Q360 1028 289 955Q219 884 177.0 780.0Q135 676 135 545V503Q135 391 173 294Q209 201 279 128Q346 58 442.0 19.0Q538 -20 652 -20Z"/><path transform="translate(4916 0)" d="M883 1102Q767 1102 672 1050Q581 1000 514 910L513 937L505 1082H329V0H515V694Q533 744 560 784Q586 824 625 853Q668 886 721 902Q775 918 844 918Q898 918 946 912Q1004 905 1048 895L1073 1076Q1046 1087 990 1095Q938 1102 883 1102Z"/><path transform="translate(6145 0)" d="M324 529V550Q324 626 341 700Q357 770 394 827Q429 882 484 913Q540 945 618 945Q707 945 770 902Q831 861 867 794V292Q830 220 770 179Q708 137 616 137Q539 137 484.0 168.0Q429 199 394 254Q357 309 341 379Q324 452 324 529ZM139 550V529Q139 411 170 312Q202 212 257 138Q313 64 392 22Q472 -20 570 -20Q671 -20 745 14Q821 49 874 114L882 0H1052V1536H867V975Q814 1037 742 1070Q672 1102 572 1102Q473 1102 393 1061Q312 1020 257 947Q200 873 170 772Q139 667 139 550Z"/><path transform="translate(8603 0)" d="M984 643V800H378V1298H1085V1456H191V0H378V643Z"/><path transform="translate(9832 0)" d="M307 529V551Q307 632 326 702Q346 776 384 830Q421 884 479 918Q534 950 613 950Q693 950 748 918Q806 885 844 830Q883 772 902.0 702.0Q921 632 921 551V529Q921 446 902 376Q883 305 845 249Q807 194 748 162Q690 130 615 130Q539 130 480 162Q422 194 384 249Q346 304 326 376Q307 446 307 529ZM122 551V529Q122 411 156 312Q191 210 254 138Q318 63 408 22Q500 -20 615 -20Q728 -20 820 22Q909 63 975 138Q1037 211 1072 312Q1106 411 1106 529V551Q1106 669 1072 768Q1037 871 975 943Q908 1020 820 1060Q728 1102 613 1102Q500 1102 408 1060Q319 1019 254 943Q192 872 156 768Q122 669 122 551Z"/><path transform="translate(11061 0)" d="M174 0H359V776Q380 813 404 840Q431 870 459 891Q492 913 540 930Q584 945 635 945Q693 945 740 931Q786 917 817 886Q847 856 864 805Q880 757 880 683V0H1065V687Q1065 796 1038 874Q1010 954 963 1003Q914 1054 844 1078Q775 1102 690 1102Q622 1100 570 1084Q516 1067 466 1034Q436 1014 406 984Q374 952 353 922L340 1082H174Z"/><path transform="translate(12290 0)" d="M612 1344H426V1082H142V939H426V351Q426 248 452 180Q479 109 525 66Q572 21 634 0Q694 -20 768 -20Q815 -20 854 -16Q899 -11 937 -4Q976 4 1009 14Q1043 25 1065 38L1039 169Q1033 167 1018.0 164.5Q1003 162 996 160Q962 152 939 149L876 140Q844 137 814 137Q770 137 736 147Q699 158 672 182Q645 204 628 247Q612 286 612 351V939H1024V1082H612Z"/><path transform="translate(13519 0)" d="M893 287Q893 259 883 238Q872 214 854 196Q824 166 768 148Q712 130 639 130Q590 130 544 140Q495 151 457 174Q417 197 390 237Q365 274 360 333H175Q175 263 206.0 200.0Q237 137 298 88Q353 42 443 10Q528 -20 639 -20Q733 -20 816 3Q895 25 955 68Q1012 109 1046 169Q1078 226 1078 300Q1078 368 1050.0 418.0Q1022 468 967 508Q908 549 834 574Q753 602 655 622Q577 637 530 653Q479 670 451 689Q421 708 409.0 734.0Q397 760 397.0 791.0Q397 822 412.0 851.0Q427 880 457 902Q484 923 530 937Q573 950 634 950Q692 950 736 934Q784 916 814 892Q845 867 864 832Q882 799 882 764H1067Q1067 832 1036 896Q1006 957 950 1004Q895 1050 814.0 1076.0Q733 1102 634 1102Q540 1102 464 1077Q383 1051 330 1009Q275 966 243 908Q212 852 212 785Q212 719 242.0 668.0Q272 617 327 580Q382 542 458 515Q532 489 627 469Q702 454 754 436Q803 419 836 395Q866 373 880 346Q893 320 893 287Z"/></g><g transform="translate(148 564) scale(0.015625 -0.015625)" fill="#ABB2BF"><path transform="translate(0 0)" d="M420 -362H144V120Q144 300 222 413Q280 494 390 566L544 665Q630 721 672 804Q710 881 710 1013V1342H502L794 1684L1086 1342H876V957Q876 767 822 662Q770 559 664 490L588 439Q492 375 460 316Q420 245 420 120ZM420 822 144 644V1953H420Z"/><path transform="translate(3687 0)" d="M-73 2160H14L1229 796L14 -568H-73Z"/><path transform="translate(7374 0)" d="M1587 868Q1618 837 1618.0 795.0Q1618 753 1587 721L884 18Q852 -13 810.0 -13.0Q768 -13 737 18L32 724Q0 755 0.0 797.0Q0 839 31 871L515 1355L697 1172Q682 1139 688.0 1101.0Q694 1063 721 1036Q739 1018 758 1009V566Q741 558 721 538Q685 503 687.0 451.0Q689 399 725.0 363.0Q761 327 813.0 327.0Q865 327 901.0 363.0Q937 399 937.0 451.0Q937 503 901 538Q886 553 868 562V1001L1035 834Q1025 809 1025 787Q1025 737 1062.0 700.0Q1099 663 1149 663Q1200 663 1237 700Q1273 735 1273.0 787.0Q1273 839 1237 875Q1211 901 1176.0 909.0Q1141 917 1109 904L930 1083Q937 1106 937 1124Q937 1175 901 1211Q876 1236 840.0 1244.0Q804 1252 773 1241L588 1427L734 1573Q766 1604 808.0 1604.0Q850 1604 881 1573Z"/><path transform="translate(11061 0)" d="M678 1604V1606Q694 1614 713 1614Q717 1614 719.0 1614.0Q721 1614 722 1614L264 826L41 1236ZM744 1606Q745 1606 747 1606L749 1604L1065 1422L1393 1232Q1401 1228 1406 1222L1194 832ZM731 1604 1187 818 731 -22H729H727L272 814ZM30 1228 257 814 9 388Q0 402 0 420V1170Q0 1208 30 1228ZM1415 1210Q1429 1190 1429 1170V430L1203 818Q1231 870 1303.0 1004.0Q1375 1138 1415 1210ZM1195 806 1427 406Q1420 374 1394 358Q1286 296 1072.0 172.0Q858 48 750 -14ZM265 800 714 -24H709Q703 -24 700.0 -23.0Q697 -22 693 -20H689Q684 -18 679 -14Q677 -14 675.0 -13.0Q673 -12 672 -10Q601 30 471.0 105.0Q341 180 236 242Q130 304 36 358Q29 362 18 376Z"/><path transform="translate(14748 0)" d="M1665 861V731H894V-34H764V731H0V861H764V1625H894V861Z"/><path transform="translate(18435 0)" d="M2126 798Q2126 749 2091.0 714.0Q2056 679 2008 679H1890L1892 88Q1892 78 1890 58V-1Q1890 -63 1847.0 -106.0Q1804 -149 1743 -149H1684H1672H1656H1536H1447Q1386 -149 1343.0 -106.0Q1300 -63 1300 -1V87V324Q1300 374 1266.0 408.0Q1232 442 1182 442H945Q896 442 862.0 408.0Q828 374 827 324V87V-1Q828 -62 784.0 -106.0Q740 -150 679 -149H591H473Q470 -148 464.0 -148.0Q458 -148 456.0 -148.0Q454 -148 450.0 -148.0Q446 -148 443 -149H384Q322 -150 279.0 -106.0Q236 -62 236 -1V412Q236 414 236.0 417.0Q236 420 237 422V679H118Q68 680 34.0 714.0Q0 748 0 798Q0 850 37 887L984 1712Q1013 1741 1065 1741Q1111 1741 1142 1716L2085 887Q2132 846 2126 798Z"/><path transform="translate(22122 0)" d="M1450 1736Q1497 1721 1521.0 1679.0Q1545 1637 1532 1590L1059 -64Q1044 -111 1002.0 -135.0Q960 -159 913.0 -146.0Q866 -133 842.0 -89.0Q818 -45 832 1L1304 1655Q1317 1702 1360.0 1726.0Q1403 1750 1450 1736ZM1748 1293V1292Q1782 1327 1831.0 1327.0Q1880 1327 1915 1292L2328 879Q2362 845 2362.0 795.0Q2362 745 2328 711L1915 298Q1880 263 1831.0 263.0Q1782 263 1748.0 298.0Q1714 333 1714.0 382.0Q1714 431 1748 465L2078 795L1748 1125Q1714 1159 1714.0 1209.0Q1714 1259 1748 1293ZM616 1125 285 795 616 465Q650 431 650.0 382.0Q650 333 616.0 298.0Q582 263 532.0 263.0Q482 263 448 298L35 712Q0 747 0.0 796.0Q0 845 35 879L448 1293Q482 1327 532.0 1327.0Q582 1327 616.0 1293.0Q650 1259 650.0 1209.0Q650 1159 616 1125Z"/><path transform="translate(25809 0)" d="M1162 749V748Q1163 734 1163.0 716.0Q1163 698 1175.0 654.0Q1187 610 1207 570Q1229 532 1277.0 486.0Q1325 440 1390 410Q1371 352 1336.0 283.0Q1301 214 1252.0 141.0Q1203 68 1139.0 19.0Q1075 -30 1011 -31Q961 -32 875.0 2.0Q789 36 729 36Q663 36 577.0 3.0Q491 -30 449 -31Q398 -33 344.0 2.0Q290 37 246 90Q201 143 161.0 209.0Q121 275 95.0 331.0Q69 387 53 432Q0 588 0 732Q1 827 25.0 908.0Q49 989 91.0 1046.0Q133 1103 187 1143Q241 1182 301.0 1202.0Q361 1222 425 1223Q481 1223 583.0 1187.0Q685 1151 707 1151Q725 1151 781.0 1172.0Q837 1193 907.0 1212.0Q977 1231 1034 1227Q1243 1210 1346 1062Q1161 950 1162 749ZM953 1356Q837 1219 696 1229Q685 1374 791 1494Q836 1546 906.0 1582.0Q976 1618 1041 1623Q1052 1474 953 1356Z"/><path transform="translate(29496 0)" d="M1212.0 1636.0Q1292 1716 1404.0 1716.0Q1516 1716 1596.0 1636.0Q1676 1556 1676.0 1444.0Q1676 1332 1596.0 1252.0Q1516 1172 1404.0 1172.0Q1292 1172 1212.0 1252.0Q1132 1332 1132.0 1444.0Q1132 1556 1212.0 1636.0ZM1032 1688Q1064 1688 1096 1688Q1040 1616 1020 1528Q1016 1496 1012 1464Q852 1464 710.0 1388.0Q568 1312 480 1180Q420 1216 352 1232Q312 1240 272 1240Q260 1240 252 1240Q368 1448 580.0 1570.0Q792 1692 1032 1688ZM1768 1292Q1972 980 1896 612Q1852 408 1724 248Q1692 368 1592 448Q1652 548 1676 660Q1728 896 1616 1112Q1720 1176 1768 1292ZM1724 248ZM80.0 1040.0Q160 1120 272.0 1120.0Q384 1120 464.0 1040.0Q544 960 544.0 848.0Q544 736 464.0 656.0Q384 576 272.0 576.0Q160 576 80.0 656.0Q0 736 0.0 848.0Q0 960 80.0 1040.0ZM432 492Q580 212 884 148Q920 140 952 136Q956 12 1032 -92Q936 -92 840 -72Q620 -24 452.0 118.0Q284 260 200 464Q320 440 432 492ZM1152.0 340.0Q1232 420 1344.0 420.0Q1456 420 1536.0 340.0Q1616 260 1616.0 146.0Q1616 32 1536.0 -46.0Q1456 -124 1344.0 -124.0Q1232 -124 1152.0 -46.0Q1072 32 1072.0 146.0Q1072 260 1152.0 340.0Z"/><path transform="translate(33183 0)" d="M858 1780Q798 1778 756.0 1735.0Q714 1692 713 1632V1630V670Q713 608 756.0 565.0Q799 522 860.0 522.0Q921 522 964.0 565.0Q1007 608 1007 670V1630V1632Q1007 1694 964.0 1737.0Q921 1780 860 1780ZM334 1296H331Q303 1296 271.0 1281.0Q239 1266 221 1246Q116 1130 58.0 982.0Q0 834 0 670Q0 496 68.0 337.0Q136 178 252 64Q368 -52 526 -120Q685 -188 859.0 -188.0Q1033 -188 1192.0 -120.0Q1351 -52 1466 64Q1582 180 1650 338Q1718 496 1718 670Q1718 834 1660.0 982.0Q1602 1130 1497 1246Q1479 1266 1447.0 1281.0Q1415 1296 1387 1296Q1326 1296 1283.0 1253.0Q1240 1210 1240 1150Q1240 1126 1252.0 1096.0Q1264 1066 1279 1050Q1424 886 1424 670Q1424 516 1348.0 386.0Q1272 256 1143 180Q1013 106 859 106Q704 106 574.0 182.0Q444 258 369 386Q294 516 294 670Q294 886 439 1050Q454 1066 466.0 1096.0Q478 1126 478 1150Q478 1210 436.0 1252.0Q394 1294 334 1296Z"/></g>
</svg>
