<svg xmlns="http://www.w3.org/2000/svg" width="1360" height="670" viewBox="0 0 1360 670" role="img" aria-label="RobotoMonoGenJyuu">
  <defs>
    <linearGradient id="title" x1="0" y1="0" x2="1" y2="0">
      <stop offset="0%" stop-color="#7AA2F7"/>
      <stop offset="50%" stop-color="#BB9AF7"/>
      <stop offset="100%" stop-color="#7DCFFF"/>
    </linearGradient>
  </defs>
  <rect width="1360" height="670" fill="#4A90E2"/>
  <rect x="112" y="88" width="1136" height="494" rx="16" fill="#282C34" stroke="#3E4451"/>
  <circle cx="152" cy="132" r="11" fill="#FF5F57"/><circle cx="191" cy="132" r="11" fill="#FEBC2E"/><circle cx="230" cy="132" r="11" fill="#28C840"/><g transform="translate(148 220) scale(0.026367 -0.026367)" fill="url(#title)"><path transform="translate(0 0)" d="M365 746V1304H608Q677 1302 732.0 1285.0Q787 1268 829 1232Q871 1194 893 1144Q916 1090 916 1021Q916 955 892 904Q869 855 827 819Q784 783 730 766Q673 747 613 746ZM656 594 942 0H1137L1138 12L829 634Q890 660 939 697Q991 736 1025 782Q1061 830 1082 889Q1102 945 1102 1019Q1102 1131 1064 1210Q1024 1293 958 1346Q891 1400 800 1427Q708 1455 608 1456H181V0H365V594Z"/><path transform="translate(1229 0)" d="M307 529V551Q307 632 326 702Q346 776 384 830Q421 884 479 918Q534 950 613 950Q693 950 748 918Q806 885 844 830Q883 772 902.0 702.0Q921 632 921 551V529Q921 446 902 376Q883 305 845 249Q807 194 748 162Q690 130 615 130Q539 130 480 162Q422 194 384 249Q346 304 326 376Q307 446 307 529ZM122 551V529Q122 411 156 312Q191 210 254 138Q318 63 408 22Q500 -20 615 -20Q728 -20 820 22Q909 63 975 138Q1037 211 1072 312Q1106 411 1106 529V551Q1106 669 1072 768Q1037 871 975 943Q908 1020 820 1060Q728 1102 613 1102Q500 1102 408 1060Q319 1019 254 943Q192 872 156 768Q122 669 122 551Z"/><path transform="translate(2458 0)" d="M906 550V529Q906 482 900.0 435.0Q894 388 881 349Q864 295 838.0 253.0Q812 211 771 182Q743 161 703 148Q669 137 619 137Q575 137 531 150Q492 162 459 185Q425 209 402 238Q379 266 360 305V778Q374 810 402 844Q428 877 458 898Q489 920 529 932Q573 945 617 945Q663 945 697 935Q735 924 762 907Q805 881 833 838Q862 794 880 741Q894 694 900 650Q906 602 906 550ZM1091 529V550Q1091 633 1077 712Q1064 786 1036 851Q1010 908 976 952Q938 1002 899 1030Q854 1062 792 1083Q735 1102 663 1102Q609 1102 559 1091Q514 1081 471 1059Q441 1043 411.0 1018.0Q381 993 360 966V1536H175V0H345L354 123Q370 103 392 81Q408 65 434 46Q483 13 538 -3Q597 -20 665 -20Q726 -20 778 -5Q832 11 875 37Q936 76 980 136Q1023 196 1050 270Q1070 328 1080 392Q1091 461 1091 529Z"/><path transform="translate(3687 0)" d="M307 529V551Q307 632 326 702Q346 776 384 830Q421 884 479 918Q534 950 613 950Q693 950 748 918Q806 885 844 830Q883 772 902.0 702.0Q921 632 921 551V529Q921 446 902 376Q883 305 845 249Q807 194 748 162Q690 130 615 130Q539 130 480 162Q422 194 384 249Q346 304 326 376Q307 446 307 529ZM122 551V529Q122 411 156 312Q191 210 254 138Q318 63 408 22Q500 -20 615 -20Q728 -20 820 22Q909 63 975 138Q1037 211 1072 312Q1106 411 1106 529V551Q1106 669 1072 768Q1037 871 975 943Q908 1020 820 1060Q728 1102 613 1102Q500 1102 408 1060Q319 1019 254 943Q192 872 156 768Q122 669 122 551Z"/><path transform="translate(4916 0)" d="M612 1344H426V1082H142V939H426V351Q426 248 452 180Q479 109 525 66Q572 21 634 0Q694 -20 768 -20Q815 -20 854 -16Q899 -11 937 -4Q976 4 1009 14Q1043 25 1065 38L1039 169Q1033 167 1018.0 164.5Q1003 162 996 160Q962 152 939 149L876 140Q844 137 814 137Q770 137 736 147Q699 158 672 182Q645 204 628 247Q612 286 612 351V939H1024V1082H612Z"/><path transform="translate(6145 0)" d="M307 529V551Q307 632 326 702Q346 776 384 830Q421 884 479 918Q534 950 613 950Q693 950 748 918Q806 885 844 830Q883 772 902.0 702.0Q921 632 921 551V529Q921 446 902 376Q883 305 845 249Q807 194 748 162Q690 130 615 130Q539 130 480 162Q422 194 384 249Q346 304 326 376Q307 446 307 529ZM122 551V529Q122 411 156 312Q191 210 254 138Q318 63 408 22Q500 -20 615 -20Q728 -20 820 22Q909 63 975 138Q1037 211 1072 312Q1106 411 1106 529V551Q1106 669 1072 768Q1037 871 975 943Q908 1020 820 1060Q728 1102 613 1102Q500 1102 408 1060Q319 1019 254 943Q192 872 156 768Q122 669 122 551Z"/><path transform="translate(7374 0)" d="M377 1456H148V0H328V581L313 1168L560 405H666L935 1189L920 581V0H1100V1456H870L614 728Z"/><path transform="translate(8603 0)" d="M307 529V551Q307 632 326 702Q346 776 384 830Q421 884 479 918Q534 950 613 950Q693 950 748 918Q806 885 844 830Q883 772 902.0 702.0Q921 632 921 551V529Q921 446 902 376Q883 305 845 249Q807 194 748 162Q690 130 615 130Q539 130 480 162Q422 194 384 249Q346 304 326 376Q307 446 307 529ZM122 551V529Q122 411 156 312Q191 210 254 138Q318 63 408 22Q500 -20 615 -20Q728 -20 820 22Q909 63 975 138Q1037 211 1072 312Q1106 411 1106 529V551Q1106 669 1072 768Q1037 871 975 943Q908 1020 820 1060Q728 1102 613 1102Q500 1102 408 1060Q319 1019 254 943Q192 872 156 768Q122 669 122 551Z"/><path transform="translate(9832 0)" d="M174 0H359V776Q380 813 404 840Q431 870 459 891Q492 913 540 930Q584 945 635 945Q693 945 740 931Q786 917 817 886Q847 856 864 805Q880 757 880 683V0H1065V687Q1065 796 1038 874Q1010 954 963 1003Q914 1054 844 1078Q775 1102 690 1102Q622 1100 570 1084Q516 1067 466 1034Q436 1014 406 984Q374 952 353 922L340 1082H174Z"/><path transform="translate(11061 0)" d="M307 529V551Q307 632 326 702Q346 776 384 830Q421 884 479 918Q534 950 613 950Q693 950 748 918Q806 885 844 830Q883 772 902.0 702.0Q921 632 921 551V529Q921 446 902 376Q883 305 845 249Q807 194 748 162Q690 130 615 130Q539 130 480 162Q422 194 384 249Q346 304 326 376Q307 446 307 529ZM122 551V529Q122 411 156 312Q191 210 254 138Q318 63 408 22Q500 -20 615 -20Q728 -20 820 22Q909 63 975 138Q1037 211 1072 312Q1106 411 1106 529V551Q1106 669 1072 768Q1037 871 975 943Q908 1020 820 1060Q728 1102 613 1102Q500 1102 408 1060Q319 1019 254 943Q192 872 156 768Q122 669 122 551Z"/><path transform="translate(12290 0)" d="M1116 191 1113 725H641V569H937L935 242Q912 209 878 188Q846 169 805 156Q768 145 724 140Q692 137 664 137Q654 137 645 137Q577 139 527.0 160.0Q477 181 436 221Q399 255 368 309Q341 355 322 415Q306 464 296 530Q288 585 286 643V814Q286 871 293 926Q301 990 316 1040Q334 1099 357 1146Q383 1198 420 1235Q459 1274 509.0 1296.0Q559 1318 626 1318Q692 1318 747 1296Q799 1275 837.0 1237.0Q875 1199 897 1146Q921 1088 931 1029H1114Q1105 1132 1066 1214Q1027 1297 963 1355Q900 1412 813.0 1444.0Q726 1476 625 1476Q532 1476 459 1449Q384 1422 327 1376Q268 1329 226 1266Q187 1207 156 1128Q127 1054 114 974Q102 900 100 812V643Q102 558 116 480Q130 404 163 327Q193 252 238 190Q282 128 343 81Q402 35 478 8Q551 -18 644 -20Q650 -20 655 -20Q736 -20 814 0Q897 22 965 62Q1012 90 1044 118Q1083 152 1116 191Z"/><path transform="translate(13519 0)" d="M628 950Q698 950 750 924Q801 898 836 856Q868 817 889 756Q908 700 908 649V640H326Q336 714 364 772Q391 829 432 870Q472 909 522 930Q569 950 628 950ZM652 -20Q808 -20 918 44Q1025 106 1079 189L966 277Q916 212 838 171Q762 131 662 131Q585 131 525 159Q460 189 419 236Q376 282 352 342Q327 404 320 481V488H1093V571Q1093 682 1064.0 781.0Q1035 880 978 950Q918 1022 832.0 1062.0Q746 1102 628 1102Q536 1102 446 1064Q360 1028 289 955Q219 884 177.0 780.0Q135 676 135 545V503Q135 391 173 294Q209 201 279 128Q346 58 442.0 19.0Q538 -20 652 -20Z"/><path transform="translate(14748 0)" d="M174 0H359V776Q380 813 404 840Q431 870 459 891Q492 913 540 930Q584 945 635 945Q693 945 740 931Q786 917 817 886Q847 856 864 805Q880 757 880 683V0H1065V687Q1065 796 1038 874Q1010 954 963 1003Q914 1054 844 1078Q775 1102 690 1102Q622 1100 570 1084Q516 1067 466 1034Q436 1014 406 984Q374 952 353 922L340 1082H174Z"/><path transform="translate(15977 0)" d="M857 1456V443Q856 382 836 326Q817 271 780 228Q742 185 691 162Q636 137 573 137Q509 137 458 158Q406 179 369 218Q331 256 310 308Q289 361 286 421H98Q107 317 144 238Q182 157 243 100Q303 43 388 11Q471 -20 573 -20Q676 -20 760 14Q843 47 908.0 111.0Q973 175 1008 257Q1045 344 1046 443V1456Z"/><path transform="translate(17206 0)" d="M261 -437Q334 -437 390 -410Q448 -382 488 -343Q530 -302 560 -256Q584 -219 608 -167L1157 1082H950L671 380L620 253L572 384L275 1082H68L534 51L460 -93Q441 -128 432 -144Q412 -179 391 -204Q364 -234 334 -254Q302 -275 265 -275Q242 -275 226 -274Q218 -274 202.0 -272.5Q186 -271 177 -270L147 -421Q157 -424 200 -431Q235 -437 261 -437Z"/><path transform="translate(18435 0)" d="M887 0H1055V1082H869V306Q854 271 832.0 242.0Q810 213 779 191Q741 164 694 150Q648 136 583 136Q532 136 490 150Q451 163 421 199Q392 234 379 291Q365 352 365 437V1082H180V439Q180 316 206 232Q234 143 282 89Q332 32 400 6Q466 -20 554 -20Q662 -20 741 24Q821 69 876 149Z"/><path transform="translate(19664 0)" d="M887 0H1055V1082H869V306Q854 271 832.0 242.0Q810 213 779 191Q741 164 694 150Q648 136 583 136Q532 136 490 150Q451 163 421 199Q392 234 379 291Q365 352 365 437V1082H180V439Q180 316 206 232Q234 143 282 89Q332 32 400 6Q466 -20 554 -20Q662 -20 741 24Q821 69 876 149Z"/></g><g transform="translate(148 290) scale(0.015625 -0.015625)" fill="#E06C75"><path transform="translate(0 0)" d="M469 547 538 901H802L733 547ZM707 410 627 0H770L850 410H1102V547H876L945 901H1177V1040H972L1054 1456H911L829 1040H565L647 1456H504L422 1040H137V901H395L326 547H61V410H300L220 0H363L443 410Z"/><path transform="translate(2458 0)" d="M433 538 628 1170 820 538ZM869 377 984 0H1168L706 1456H551L81 0H266L383 377Z"/><path transform="translate(3687 0)" d="M203 1536V1375H571V160H203V0H1109V160H756V1536Z"/><path transform="translate(4916 0)" d="M902 550V529Q902 450 884 378Q866 304 831 251Q797 198 739 164Q684 131 606 131Q557 131 518 143Q478 155 447 176Q422 192 397 220Q375 245 358 276V797Q378 832 402 859Q425 885 459 906Q485 924 524 935Q558 945 604 945Q682 945 738 913Q793 882 831 827Q866 774 884 700Q902 628 902 550ZM173 -416H358V104Q374 86 401 64Q425 44 450 30Q493 6 546 -7Q598 -20 662 -20Q764 -20 844 22Q922 63 977 138Q1030 210 1059 312Q1087 411 1087 529V550Q1087 672 1059 772Q1030 874 977 947Q923 1020 843.0 1061.0Q763 1102 659 1102Q599 1102 548 1090Q500 1079 455 1053Q424 1036 399 1014Q371 989 351 964L342 1082H173Z"/><path transform="translate(6145 0)" d="M359 921V1536H174V0H359V786Q378 816 404 844Q430 871 460 891Q500 918 543 931Q590 945 638 945Q642 945 647 945Q702 945 746 928Q793 910 824 876Q853 844 868.0 796.0Q883 748 883 683V0H1068V681Q1068 793 1042 870Q1015 949 966 1001Q916 1055 848 1078Q779 1102 693 1102Q625 1100 570 1083Q514 1065 465 1030Q435 1009 408 982Q385 959 359 921Z"/><path transform="translate(7374 0)" d="M463 155Q422 169 395 194Q367 219 354.0 252.0Q341 285 341 326Q341 368 356 401Q370 433 402 458Q442 491 516.0 508.0Q590 525 683 525H855V306Q837 271 811 244Q784 215 745 192Q703 168 659 155Q611 141 558.0 141.0Q505 141 463 155ZM885 0H1078V16Q1061 58 1050 122Q1040 179 1040 236V739Q1040 830 1007.0 898.0Q974 966 917 1012Q857 1058 780 1080Q702 1102 609 1102Q506 1102 428 1074Q349 1046 294 1001Q237 953 208 898Q180 844 178 782H364Q364 817 380.0 848.0Q396 879 427 902Q460 926 500 939Q545 953 599 953Q658 953 706 938Q752 924 786 896Q819 867 837 829Q855 790 855 741V656H653Q537 656 448 634Q356 612 292 568Q228 523 192 456Q156 388 156 300Q156 230 182 174Q210 114 258 73Q303 32 376 5Q444 -20 531 -20Q582 -20 631 -9Q678 2 720 21Q767 44 796 65Q830 91 858 118Q860 93 868 52Q874 23 885 0Z"/><path transform="translate(8603 0)" d="M906 550V529Q906 482 900.0 435.0Q894 388 881 349Q864 295 838.0 253.0Q812 211 771 182Q743 161 703 148Q669 137 619 137Q575 137 531 150Q492 162 459 185Q425 209 402 238Q379 266 360 305V778Q374 810 402 844Q428 877 458 898Q489 920 529 932Q573 945 617 945Q663 945 697 935Q735 924 762 907Q805 881 833 838Q862 794 880 741Q894 694 900 650Q906 602 906 550ZM1091 529V550Q1091 633 1077 712Q1064 786 1036 851Q1010 908 976 952Q938 1002 899 1030Q854 1062 792 1083Q735 1102 663 1102Q609 1102 559 1091Q514 1081 471 1059Q441 1043 411.0 1018.0Q381 993 360 966V1536H175V0H345L354 123Q370 103 392 81Q408 65 434 46Q483 13 538 -3Q597 -20 665 -20Q726 -20 778 -5Q832 11 875 37Q936 76 980 136Q1023 196 1050 270Q1070 328 1080 392Q1091 461 1091 529Z"/><path transform="translate(9832 0)" d="M628 950Q698 950 750 924Q801 898 836 856Q868 817 889 756Q908 700 908 649V640H326Q336 714 364 772Q391 829 432 870Q472 909 522 930Q569 950 628 950ZM652 -20Q808 -20 918 44Q1025 106 1079 189L966 277Q916 212 838 171Q762 131 662 131Q585 131 525 159Q460 189 419 236Q376 282 352 342Q327 404 320 481V488H1093V571Q1093 682 1064.0 781.0Q1035 880 978 950Q918 1022 832.0 1062.0Q746 1102 628 1102Q536 1102 446 1064Q360 1028 289 955Q219 884 177.0 780.0Q135 676 135 545V503Q135 391 173 294Q209 201 279 128Q346 58 442.0 19.0Q538 -20 652 -20Z"/><path transform="translate(11061 0)" d="M612 1344H426V1082H142V939H426V351Q426 248 452 180Q479 109 525 66Q572 21 634 0Q694 -20 768 -20Q815 -20 854 -16Q899 -11 937 -4Q976 4 1009 14Q1043 25 1065 38L1039 169Q1033 167 1018.0 164.5Q1003 162 996 160Q962 152 939 149L876 140Q844 137 814 137Q770 137 736 147Q699 158 672 182Q645 204 628 247Q612 286 612 351V939H1024V1082H612Z"/></g><g transform="translate(148 336) scale(0.015625 -0.015625)" fill="#ABB2BF"><path transform="translate(0 0)" d="M463 155Q422 169 395 194Q367 219 354.0 252.0Q341 285 341 326Q341 368 356 401Q370 433 402 458Q442 491 516.0 508.0Q590 525 683 525H855V306Q837 271 811 244Q784 215 745 192Q703 168 659 155Q611 141 558.0 141.0Q505 141 463 155ZM885 0H1078V16Q1061 58 1050 122Q1040 179 1040 236V739Q1040 830 1007.0 898.0Q974 966 917 1012Q857 1058 780 1080Q702 1102 609 1102Q506 1102 428 1074Q349 1046 294 1001Q237 953 208 898Q180 844 178 782H364Q364 817 380.0 848.0Q396 879 427 902Q460 926 500 939Q545 953 599 953Q658 953 706 938Q752 924 786 896Q819 867 837 829Q855 790 855 741V656H653Q537 656 448 634Q356 612 292 568Q228 523 192 456Q156 388 156 300Q156 230 182 174Q210 114 258 73Q303 32 376 5Q444 -20 531 -20Q582 -20 631 -9Q678 2 720 21Q767 44 796 65Q830 91 858 118Q860 93 868 52Q874 23 885 0Z"/><path transform="translate(1229 0)" d="M906 550V529Q906 482 900.0 435.0Q894 388 881 349Q864 295 838.0 253.0Q812 211 771 182Q743 161 703 148Q669 137 619 137Q575 137 531 150Q492 162 459 185Q425 209 402 238Q379 266 360 305V778Q374 810 402 844Q428 877 458 898Q489 920 529 932Q573 945 617 945Q663 945 697 935Q735 924 762 907Q805 881 833 838Q862 794 880 741Q894 694 900 650Q906 602 906 550ZM1091 529V550Q1091 633 1077 712Q1064 786 1036 851Q1010 908 976 952Q938 1002 899 1030Q854 1062 792 1083Q735 1102 663 1102Q609 1102 559 1091Q514 1081 471 1059Q441 1043 411.0 1018.0Q381 993 360 966V1536H175V0H345L354 123Q370 103 392 81Q408 65 434 46Q483 13 538 -3Q597 -20 665 -20Q726 -20 778 -5Q832 11 875 37Q936 76 980 136Q1023 196 1050 270Q1070 328 1080 392Q1091 461 1091 529Z"/><path transform="translate(2458 0)" d="M635 130Q548 130 490 164Q431 199 396 255Q359 313 344 380Q329 449 329 520V562Q329 632 344 701Q359 768 396 826Q432 882 490.0 916.0Q548 950 635 950Q693 950 740 931Q790 911 823.0 879.0Q856 847 878 802Q898 760 900 710H1075Q1075 792 1042 864Q1008 938 951 989Q891 1043 812 1072Q731 1102 635 1102Q513 1102 420 1058Q330 1015 267 940Q206 865 174 767Q143 671 143 562V520Q143 410 174 314Q206 216 267 143Q329 67 420 24Q513 -20 635 -20Q720 -20 800 10Q879 40 940 89Q1003 140 1038 204Q1074 269 1075 341H900Q899 297 876.0 258.0Q853 219 817 191Q779 162 732.0 146.0Q685 130 635 130Z"/><path transform="translate(3687 0)" d="M324 529V550Q324 626 341 700Q357 770 394 827Q429 882 484 913Q540 945 618 945Q707 945 770 902Q831 861 867 794V292Q830 220 770 179Q708 137 616 137Q539 137 484.0 168.0Q429 199 394 254Q357 309 341 379Q324 452 324 529ZM139 550V529Q139 411 170 312Q202 212 257 138Q313 64 392 22Q472 -20 570 -20Q671 -20 745 14Q821 49 874 114L882 0H1052V1536H867V975Q814 1037 742 1070Q672 1102 572 1102Q473 1102 393 1061Q312 1020 257 947Q200 873 170 772Q139 667 139 550Z"/><path transform="translate(4916 0)" d="M628 950Q698 950 750 924Q801 898 836 856Q868 817 889 756Q908 700 908 649V640H326Q336 714 364 772Q391 829 432 870Q472 909 522 930Q569 950 628 950ZM652 -20Q808 -20 918 44Q1025 106 1079 189L966 277Q916 212 838 171Q762 131 662 131Q585 131 525 159Q460 189 419 236Q376 282 352 342Q327 404 320 481V488H1093V571Q1093 682 1064.0 781.0Q1035 880 978 950Q918 1022 832.0 1062.0Q746 1102 628 1102Q536 1102 446 1064Q360 1028 289 955Q219 884 177.0 780.0Q135 676 135 545V503Q135 391 173 294Q209 201 279 128Q346 58 442.0 19.0Q538 -20 652 -20Z"/><path transform="translate(6145 0)" d="M450 0H636V939H1053V1082H636V1158Q636 1226 654 1277Q673 1331 705 1360Q735 1390 786.0 1406.0Q837 1422 897 1422Q963 1422 1014 1412Q1062 1403 1109 1387L1131 1540Q1123 1542 1114.5 1544.0Q1106 1546 1096.0 1548.5Q1086 1551 1080 1552Q1043 1561 1030 1563Q1005 1568 953 1574Q910 1579 874 1579Q778 1579 700 1552Q624 1526 567.0 1472.0Q510 1418 480.0 1340.0Q450 1262 450 1158V1082H152V939H450Z"/><path transform="translate(7374 0)" d="M325 529V550Q325 626 342 700Q359 772 394.0 827.0Q429 882 484 913Q540 945 618 945Q668 945 702 934Q738 923 771 902Q802 881 826 853Q851 823 868 791V295Q849 258 826 231Q801 201 772 181Q740 160 702 148Q666 137 616 137Q539 137 484.0 168.0Q429 199 394 254Q359 307 342 379Q325 452 325 529ZM140 550V529Q140 412 170 312Q200 213 256 138Q312 64 391.0 22.0Q470 -20 570 -20Q629 -20 680 -8Q726 3 773 28Q798 42 824 63Q843 78 868 107V14Q868 -55 848 -110Q828 -164 791 -200Q756 -235 700 -256Q649 -275 581 -275Q542 -275 507 -268Q476 -262 433 -243Q397 -227 360 -198Q328 -173 290 -128L194 -239Q233 -293 282.0 -328.0Q331 -363 390 -385Q444 -407 499 -416Q559 -426 595 -426Q697 -426 781.0 -396.0Q865 -366 926 -308Q988 -248 1020 -167Q1053 -84 1053 23V1082H885L876 964Q853 992 836 1008Q815 1027 790 1043Q746 1072 692.0 1087.0Q638 1102 572 1102Q471 1102 391 1061Q310 1020 255.0 947.0Q200 874 170.0 772.0Q140 670 140 550Z"/><path transform="translate(8603 0)" d="M359 921V1536H174V0H359V786Q378 816 404 844Q430 871 460 891Q500 918 543 931Q590 945 638 945Q642 945 647 945Q702 945 746 928Q793 910 824 876Q853 844 868.0 796.0Q883 748 883 683V0H1068V681Q1068 793 1042 870Q1015 949 966 1001Q916 1055 848 1078Q779 1102 693 1102Q625 1100 570 1083Q514 1065 465 1030Q435 1009 408 982Q385 959 359 921Z"/><path transform="translate(9832 0)" d="M547 1366Q547 1321 574.0 1291.0Q601 1261 658 1261Q712 1261 741 1291Q769 1320 769 1366Q769 1390 761.0 1412.0Q753 1434 737 1447Q724 1460 704 1468Q686 1475 658 1475Q632 1475 612.0 1468.0Q592 1461 578 1447Q562 1432 554 1411Q547 1391 547 1366ZM203 1082V921H571V160H203V0H1109V160H756V1082Z"/><path transform="translate(11061 0)" d="M634 1367Q634 1322 661 1292Q689 1261 744.0 1261.0Q799 1261 828 1292Q856 1321 856.0 1367.0Q856 1413 828.0 1444.0Q800 1475 744.0 1475.0Q688 1475 661.0 1444.0Q634 1413 634 1367ZM299 1082V921H660V-7Q660 -82 640 -136Q619 -191 587 -221Q552 -253 507 -266Q459 -280 409 -280H370Q363 -280 354.5 -279.5Q346 -279 336.0 -278.0Q326 -277 320 -277Q268 -274 267 -274Q239 -271 224 -268L211 -420Q248 -427 259 -428Q288 -432 305 -433L362 -436Q381 -437 422 -437Q521 -437 600 -408Q680 -379 734 -325Q787 -272 816.0 -191.0Q845 -110 845 -7V1082Z"/><path transform="translate(12290 0)" d="M498 505 895 0H1130L625 631L1063 1082H838L483 726L362 596V1536H176V0H362V374Z"/><path transform="translate(13519 0)" d="M203 1536V1375H571V160H203V0H1109V160H756V1536Z"/><path transform="translate(14748 0)" d="M259 1082H93V0H269V861Q275 878 284 891Q294 906 307 916Q325 931 348 938Q370 945 406 945Q437 945 458 938Q481 930 496 914Q512 898 520 871Q527 847 527 811V0H703V810V820V830Q706 855 715 876Q723 895 740 912Q757 927 780 936Q804 945 837 945Q866 945 892 937Q914 930 931 913Q946 896 954 870Q962 843 962 810V0H1138V808Q1138 887 1120 944Q1102 1002 1068 1037Q1035 1070 992 1086Q948 1102 891 1102Q847 1100 816 1091Q782 1080 753 1064Q735 1052 712 1029Q694 1011 679 986Q670 1007 652 1031Q635 1053 618 1065Q592 1083 558 1092Q520 1102 480 1102Q404 1101 350 1069Q298 1039 264 980Z"/><path transform="translate(15977 0)" d="M174 0H359V776Q380 813 404 840Q431 870 459 891Q492 913 540 930Q584 945 635 945Q693 945 740 931Q786 917 817 886Q847 856 864 805Q880 757 880 683V0H1065V687Q1065 796 1038 874Q1010 954 963 1003Q914 1054 844 1078Q775 1102 690 1102Q622 1100 570 1084Q516 1067 466 1034Q436 1014 406 984Q374 952 353 922L340 1082H174Z"/><path transform="translate(17206 0)" d="M307 529V551Q307 632 326 702Q346 776 384 830Q421 884 479 918Q534 950 613 950Q693 950 748 918Q806 885 844 830Q883 772 902.0 702.0Q921 632 921 551V529Q921 446 902 376Q883 305 845 249Q807 194 748 162Q690 130 615 130Q539 130 480 162Q422 194 384 249Q346 304 326 376Q307 446 307 529ZM122 551V529Q122 411 156 312Q191 210 254 138Q318 63 408 22Q500 -20 615 -20Q728 -20 820 22Q909 63 975 138Q1037 211 1072 312Q1106 411 1106 529V551Q1106 669 1072 768Q1037 871 975 943Q908 1020 820 1060Q728 1102 613 1102Q500 1102 408 1060Q319 1019 254 943Q192 872 156 768Q122 669 122 551Z"/><path transform="translate(18435 0)" d="M902 550V529Q902 450 884 378Q866 304 831 251Q797 198 739 164Q684 131 606 131Q557 131 518 143Q478 155 447 176Q422 192 397 220Q375 245 358 276V797Q378 832 402 859Q425 885 459 906Q485 924 524 935Q558 945 604 945Q682 945 738 913Q793 882 831 827Q866 774 884 700Q902 628 902 550ZM173 -416H358V104Q374 86 401 64Q425 44 450 30Q493 6 546 -7Q598 -20 662 -20Q764 -20 844 22Q922 63 977 138Q1030 210 1059 312Q1087 411 1087 529V550Q1087 672 1059 772Q1030 874 977 947Q923 1020 843.0 1061.0Q763 1102 659 1102Q599 1102 548 1090Q500 1079 455 1053Q424 1036 399 1014Q371 989 351 964L342 1082H173Z"/><path transform="translate(19664 0)" d="M325 529V550Q325 633 342 701Q360 775 397 829Q432 883 489 917Q544 950 622 950Q668 950 702 940Q737 930 769 910Q804 887 824 866Q847 842 867 809V275Q846 239 822 214Q798 188 765 168Q735 152 699 141Q665 131 620 131Q544 131 488 164Q430 198 396 251Q360 307 342 378Q325 446 325 529ZM140 550V529Q140 412 170 312Q200 210 255 138Q311 64 392.0 22.0Q473 -20 575 -20Q630 -20 674 -10Q723 1 759 19Q783 29 816 53Q843 72 867 98V-416H1052V1082H882L874 975Q851 1001 829 1019Q803 1040 778 1054Q735 1078 686 1090Q635 1102 577 1102Q474 1102 392 1061Q309 1019 254 947Q197 871 169 772Q140 668 140 550Z"/><path transform="translate(20893 0)" d="M883 1102Q767 1102 672 1050Q581 1000 514 910L513 937L505 1082H329V0H515V694Q533 744 560 784Q586 824 625 853Q668 886 721 902Q775 918 844 918Q898 918 946 912Q1004 905 1048 895L1073 1076Q1046 1087 990 1095Q938 1102 883 1102Z"/><path transform="translate(22122 0)" d="M893 287Q893 259 883 238Q872 214 854 196Q824 166 768 148Q712 130 639 130Q590 130 544 140Q495 151 457 174Q417 197 390 237Q365 274 360 333H175Q175 263 206.0 200.0Q237 137 298 88Q353 42 443 10Q528 -20 639 -20Q733 -20 816 3Q895 25 955 68Q1012 109 1046 169Q1078 226 1078 300Q1078 368 1050.0 418.0Q1022 468 967 508Q908 549 834 574Q753 602 655 622Q577 637 530 653Q479 670 451 689Q421 708 409.0 734.0Q397 760 397.0 791.0Q397 822 412.0 851.0Q427 880 457 902Q484 923 530 937Q573 950 634 950Q692 950 736 934Q784 916 814 892Q845 867 864 832Q882 799 882 764H1067Q1067 832 1036 896Q1006 957 950 1004Q895 1050 814.0 1076.0Q733 1102 634 1102Q540 1102 464 1077Q383 1051 330 1009Q275 966 243 908Q212 852 212 785Q212 719 242.0 668.0Q272 617 327 580Q382 542 458 515Q532 489 627 469Q702 454 754 436Q803 419 836 395Q866 373 880 346Q893 320 893 287Z"/><path transform="translate(23351 0)" d="M612 1344H426V1082H142V939H426V351Q426 248 452 180Q479 109 525 66Q572 21 634 0Q694 -20 768 -20Q815 -20 854 -16Q899 -11 937 -4Q976 4 1009 14Q1043 25 1065 38L1039 169Q1033 167 1018.0 164.5Q1003 162 996 160Q962 152 939 149L876 140Q844 137 814 137Q770 137 736 147Q699 158 672 182Q645 204 628 247Q612 286 612 351V939H1024V1082H612Z"/><path transform="translate(24580 0)" d="M887 0H1055V1082H869V306Q854 271 832.0 242.0Q810 213 779 191Q741 164 694 150Q648 136 583 136Q532 136 490 150Q451 163 421 199Q392 234 379 291Q365 352 365 437V1082H180V439Q180 316 206 232Q234 143 282 89Q332 32 400 6Q466 -20 554 -20Q662 -20 741 24Q821 69 876 149Z"/><path transform="translate(25809 0)" d="M543 0H684L1125 1082H936L633 266L615 199L598 266L288 1082H98Z"/><path transform="translate(27038 0)" d="M278 0H424L591 663L618 831L646 663L815 0H961L1191 1082H1027L907 392L880 222L851 392L679 1082H560L387 392L360 237L338 392L212 1082H48Z"/><path transform="translate(28267 0)" d="M621 681 335 1082H121L524 547L110 0H326L625 412L924 0H1138L724 547L1127 1082H910Z"/><path transform="translate(29496 0)" d="M261 -437Q334 -437 390 -410Q448 -382 488 -343Q530 -302 560 -256Q584 -219 608 -167L1157 1082H950L671 380L620 253L572 384L275 1082H68L534 51L460 -93Q441 -128 432 -144Q412 -179 391 -204Q364 -234 334 -254Q302 -275 265 -275Q242 -275 226 -274Q218 -274 202.0 -272.5Q186 -271 177 -270L147 -421Q157 -424 200 -431Q235 -437 261 -437Z"/><path transform="translate(30725 0)" d="M396 151 1049 951V1082H169V929H806L160 136V0H1085V151Z"/></g><g transform="translate(148 382) scale(0.015625 -0.015625)" fill="#ABB2BF"><path transform="translate(0 0)" d="M433 538 628 1170 820 538ZM869 377 984 0H1168L706 1456H551L81 0H266L383 377Z"/><path transform="translate(1229 0)" d="M358 835V1298H611Q669 1296 716 1284Q769 1270 808 1244Q846 1216 870.0 1173.0Q894 1130 894 1069Q894 1013 870 969Q846 926 807 897Q768 867 718 852Q667 836 616 835ZM358 681H653Q711 680 763 661Q815 643 852 610Q892 573 912 528Q932 482 932 426Q932 422 932 418Q932 357 908 309Q883 259 845 228Q802 193 753 176Q702 159 643 157H358ZM172 0H638Q734 2 818 29Q906 58 973 110Q1039 162 1080 240Q1119 315 1119 413Q1119 416 1119 420Q1119 487 1100.0 541.0Q1081 595 1045 642Q1012 682 961 717Q912 750 855 764V767Q906 789 946 816Q979 839 1014 880Q1044 918 1062 964Q1078 1006 1080 1068Q1080 1072 1080 1075Q1080 1172 1041 1243Q1000 1318 934 1363Q866 1410 781 1432Q696 1454 605 1456H172Z"/><path transform="translate(2458 0)" d="M1117 438H932Q923 372 901 316Q877 256 842 218Q803 174 752 153Q697 130 625 130Q560 130 508 152Q459 173 421 211Q384 248 360 297Q336 346 321 402Q306 458 300 514Q293 581 293 626V831Q293 876 300 942Q306 1000 321 1055Q335 1108 360 1159Q383 1206 422 1245Q459 1284 508 1304Q559 1325 625 1325Q696 1325 752 1300Q804 1277 842 1233Q878 1191 901 1133Q923 1078 932 1010H1117Q1105 1116 1068 1200Q1031 1286 968 1348Q908 1408 820.0 1442.0Q732 1476 625 1476Q536 1476 461 1450Q387 1424 331 1380Q275 1337 232 1274Q190 1213 163 1140Q136 1072 122 989Q108 909 107 829V626Q108 546 122 466Q136 383 163 315Q190 244 232 182Q275 119 331 76Q386 32 462 6Q537 -20 625 -20Q728 -20 816 14Q902 47 964.0 108.0Q1026 169 1065 252Q1103 334 1117 438Z"/><path transform="translate(3687 0)" d="M343 1304H492Q563 1302 619 1288Q679 1273 724 1248Q791 1213 836 1156Q882 1098 908 1030Q930 973 940 914Q949 858 951 783V674Q949 601 940 546Q929 483 910 431Q888 368 848 314Q809 262 754 225Q702 190 638 171Q576 153 492 151H343ZM155 0H492Q600 2 688 25Q778 49 850 94Q920 139 973 198Q1028 259 1064 334Q1101 411 1118 492Q1136 578 1136 674V781Q1134 885 1116 969Q1096 1058 1059 1131Q1018 1219 950 1284Q878 1352 792 1392Q730 1421 652 1438Q577 1455 492 1456H155Z"/><path transform="translate(4916 0)" d="M975 673V830H367V1298H1067V1456H182V0H1076V157H367V673Z"/><path transform="translate(6145 0)" d="M984 643V800H378V1298H1085V1456H191V0H378V643Z"/><path transform="translate(7374 0)" d="M1116 191 1113 725H641V569H937L935 242Q912 209 878 188Q846 169 805 156Q768 145 724 140Q692 137 664 137Q654 137 645 137Q577 139 527.0 160.0Q477 181 436 221Q399 255 368 309Q341 355 322 415Q306 464 296 530Q288 585 286 643V814Q286 871 293 926Q301 990 316 1040Q334 1099 357 1146Q383 1198 420 1235Q459 1274 509.0 1296.0Q559 1318 626 1318Q692 1318 747 1296Q799 1275 837.0 1237.0Q875 1199 897 1146Q921 1088 931 1029H1114Q1105 1132 1066 1214Q1027 1297 963 1355Q900 1412 813.0 1444.0Q726 1476 625 1476Q532 1476 459 1449Q384 1422 327 1376Q268 1329 226 1266Q187 1207 156 1128Q127 1054 114 974Q102 900 100 812V643Q102 558 116 480Q130 404 163 327Q193 252 238 190Q282 128 343 81Q402 35 478 8Q551 -18 644 -20Q650 -20 655 -20Q736 -20 814 0Q897 22 965 62Q1012 90 1044 118Q1083 152 1116 191Z"/><path transform="translate(8603 0)" d="M1087 0V1456H912V830H315V1456H141V0H315V673H912V0Z"/><path transform="translate(9832 0)" d="M174 1456V1295H515V160H174V0H1054V160H705V1295H1054V1456Z"/><path transform="translate(11061 0)" d="M857 1456V443Q856 382 836 326Q817 271 780 228Q742 185 691 162Q636 137 573 137Q509 137 458 158Q406 179 369 218Q331 256 310 308Q289 361 286 421H98Q107 317 144 238Q182 157 243 100Q303 43 388 11Q471 -20 573 -20Q676 -20 760 14Q843 47 908.0 111.0Q973 175 1008 257Q1045 344 1046 443V1456Z"/><path transform="translate(12290 0)" d="M523 676 963 0H1188L645 819L1154 1456H929L502 921L361 745V1456H172V0H361V492Z"/><path transform="translate(13519 0)" d="M383 157V1456H198V0H1095V157Z"/><path transform="translate(14748 0)" d="M377 1456H148V0H328V581L313 1168L560 405H666L935 1189L920 581V0H1100V1456H870L614 728Z"/><path transform="translate(15977 0)" d="M1086 0V1456H899L896 370L331 1456H143V0H330L333 1088L898 0Z"/><path transform="translate(17206 0)" d="M938 812V644Q936 573 932 535Q926 483 912 423Q895 361 874 316Q851 267 815 228Q778 188 730 166Q679 143 615 143Q552 143 501 166Q453 188 416 228Q380 265 356 317Q332 367 317 424Q302 480 296 536Q289 600 288 644V812Q289 856 296 920Q302 976 317 1032Q330 1084 355 1138Q378 1187 415 1227Q453 1267 500 1288Q551 1311 613 1311Q676 1311 727 1288Q776 1266 812 1228Q848 1189 872 1138Q897 1085 911 1033Q925 974 931 920Q936 869 938 812ZM1121 644V810Q1119 892 1108 968Q1097 1042 1069 1122Q1041 1197 1002 1260Q962 1324 905 1373Q850 1421 776 1448Q700 1476 613 1476Q525 1476 450 1448Q377 1421 322 1373Q265 1322 226 1260Q184 1193 159 1121Q132 1048 120 968Q107 885 106 810V644Q108 560 120 487Q134 405 160 334Q184 264 227 196Q267 132 324 83Q379 35 452 8Q527 -20 615.0 -20.0Q703 -20 778 8Q851 35 906 83Q962 132 1002 195Q1045 263 1069 333Q1097 414 1108 486Q1119 562 1121 644Z"/><path transform="translate(18435 0)" d="M376 736V1304H663Q728 1302 782 1283Q835 1264 876 1226Q916 1188 938 1136Q960 1085 960 1017Q960 950 938 900Q915 847 875 812Q833 775 781 756Q730 738 663 736ZM376 584H663Q761 586 848 614Q937 643 1002 698Q1067 752 1106 834Q1145 915 1145 1019Q1145 1124 1106 1205Q1067 1287 1002 1341Q937 1396 848 1425Q758 1455 663 1456H191V0H376Z"/><path transform="translate(19664 0)" d="M950 793V663Q948 588 944 548Q939 494 924 431Q910 375 885 321Q861 268 824 230Q787 190 736 166Q687 143 615 143Q545 143 496 166Q443 191 407 230Q370 270 346 322Q319 381 306 432Q289 497 284 550Q278 610 278 663V793Q278 846 284 906Q289 959 306 1024Q319 1075 346 1133Q370 1185 407 1225Q445 1264 495 1288Q544 1311 614 1311Q682 1311 734 1288Q785 1265 823 1226Q860 1186 884 1134Q911 1076 924 1025Q939 962 944 908Q948 868 950 793ZM1134 663V791Q1132 879 1120 954Q1107 1035 1081 1112Q1054 1187 1012 1254Q968 1323 914 1370Q854 1421 782 1448Q708 1476 614.0 1476.0Q520 1476 446 1448Q373 1420 315 1370Q257 1321 216.0 1254.0Q175 1187 148 1111Q122 1036 108 953Q96 877 94 791V663Q96 576 108 502Q122 417 148 344Q175 269 217 202Q260 134 317 86Q374 37 448 8Q520 -20 615 -20Q655 -20 684 -16Q715 -12 749 -2L1037 -246L1164 -125L913 84Q968 130 1012 200Q1054 267 1081 342Q1107 419 1120 500Q1132 576 1134 663Z"/><path transform="translate(20893 0)" d="M365 746V1304H608Q677 1302 732.0 1285.0Q787 1268 829 1232Q871 1194 893 1144Q916 1090 916 1021Q916 955 892 904Q869 855 827 819Q784 783 730 766Q673 747 613 746ZM656 594 942 0H1137L1138 12L829 634Q890 660 939 697Q991 736 1025 782Q1061 830 1082 889Q1102 945 1102 1019Q1102 1131 1064 1210Q1024 1293 958 1346Q891 1400 800 1427Q708 1455 608 1456H181V0H365V594Z"/><path transform="translate(22122 0)" d="M936 368Q936 308 910 264Q886 223 843.0 193.0Q800 163 750 150Q699 137 643 137Q578 137 518.0 156.0Q458 175 416 211Q373 247 344 300Q316 351 307 420H118Q121 327 160 250Q200 171 264 116Q338 49 438 15Q540 -20 643 -20Q730 -20 817 4Q903 28 973 78Q1043 127 1086 199Q1129 272 1129 370Q1129 467 1088 541Q1047 616 982 666Q918 719 834 756Q757 790 672 817Q640 827 568 852Q512 872 465 902Q419 931 386 976Q356 1018 354 1082Q354 1140 378 1184Q404 1230 441 1258Q481 1288 530 1303Q581 1318 634 1318Q702 1318 752 1298Q807 1276 843 1240Q883 1200 904 1152Q928 1098 935 1037H1125Q1124 1135 1082 1218Q1042 1298 973 1356Q907 1412 817.0 1444.0Q727 1476 634 1476Q545 1476 463 1450Q379 1424 311 1372Q245 1322 202 1247Q161 1175 161.0 1079.0Q161 983 202 916Q245 845 310 795Q373 747 454 710Q527 677 611 649Q664 632 722 611Q781 589 827 559Q877 526 906 481Q936 434 936 368Z"/><path transform="translate(23351 0)" d="M1156 1298V1456H76V1298H526V0H706V1298Z"/><path transform="translate(24580 0)" d="M1088 1456H909L906 470Q904 405 885 345Q865 285 830 239Q790 190 739 164Q685 137 614 137Q541 137 488 165Q433 194 398 239Q362 284 342 345Q323 405 321 470L317 1456H141L139 470Q140 368 175 278Q208 192 272 123Q333 56 421.0 18.0Q509 -20 614 -20Q720 -20 805 18Q893 57 955 124Q1018 190 1054.0 279.0Q1090 368 1090 470Z"/><path transform="translate(25809 0)" d="M531 0H692L1151 1456H954L632 371L610 298L589 369L269 1456H71Z"/><path transform="translate(27038 0)" d="M250 0H440L618 1035L629 1097L639 1036L816 0H1005L1182 1456H1007L902 454L896 394L885 453L708 1456H547L371 454L360 394L354 452L249 1456H73Z"/><path transform="translate(28267 0)" d="M625 885 315 1456H98L521 734L87 0H306L629 582L951 0H1167L734 734L1157 1456H939Z"/><path transform="translate(29496 0)" d="M603 725 272 1456H61L514 543L517 0H689L692 543L1145 1456H935Z"/><path transform="translate(30725 0)" d="M325 157 1052 1315 1050 1456H127V1298H839L114 144L116 0H1079V157Z"/><path transform="translate(33183 0)" d="M902 518Q902 415 880 332Q859 253 813 204Q779 168 730 149Q682 130 618 130Q558 130 510 148Q460 167 428 199Q390 235 368 290Q345 347 336 419L902 852V782V724ZM331 594V645V695V939Q331 1040 352 1118Q373 1197 414 1245Q447 1282 500 1304Q551 1325 616 1325Q682 1325 730 1306Q780 1286 814 1249Q849 1211 870 1156Q890 1102 898 1029ZM1088 557V898Q1088 1034 1056 1144Q1025 1252 964 1326Q903 1399 816.0 1438.0Q729 1477 616 1477Q505 1477 418 1438Q329 1398 270 1326Q209 1253 177 1144Q145 1034 145 898V557Q145 420 177 310Q208 204 270 130Q331 55 419 18Q509 -20 618 -20Q729 -20 817 18Q903 55 964.0 130.0Q1025 205 1056 310Q1088 420 1088 557Z"/><path transform="translate(34412 0)" d="M774 0V1456H759L208 1244V1075L589 1220V0Z"/><path transform="translate(35641 0)" d="M1067 0V151H336L727 575Q775 627 832 696Q880 755 919 818Q953 873 978 944Q1000 1006 1000 1072Q1000 1160 970.0 1233.0Q940 1306 882.0 1361.0Q824 1416 742 1446Q659 1476 557 1476Q445 1476 358 1440Q269 1403 210 1343Q149 1282 117.0 1200.0Q85 1118 85 1027H271Q271 1098 288 1150Q306 1205 342 1244Q377 1283 430 1303Q484 1324 557 1324Q618 1324 664.0 1304.0Q710 1284 746 1248Q778 1215 796 1166Q814 1118 814 1064Q814 1022 803 978Q794 942 766 891Q740 844 697 789Q648 726 590 663L113 133V0Z"/><path transform="translate(36870 0)" d="M390 817V667H522Q593 667 648 651Q708 634 747 602Q788 569 810 520Q832 472 832 402Q832 334 812 282Q793 233 757 198Q723 165 670.0 148.0Q617 131 556 131Q493 131 442 149Q389 168 354 200Q318 233 298 280Q279 325 279 384H94Q94 288 130 213Q165 141 229 86Q289 35 376 7Q460 -20 556 -20Q655 -20 738 8Q824 37 885 92Q948 148 982 225Q1017 306 1017 406Q1017 460 1006 507Q994 559 966.0 604.0Q938 649 890 687Q842 724 771 747Q830 773 872 810Q918 851 942 890Q968 931 982 977Q995 1020 995 1064Q995 1164 963 1242Q932 1318 873 1371Q815 1423 734 1450Q656 1476 555 1476Q456 1476 372 1444Q287 1411 230 1359Q171 1303 138 1230Q106 1159 106 1074H292Q292 1132 311 1177Q330 1223 365 1256Q397 1287 448 1306Q496 1324 555 1324Q613 1324 664 1308Q712 1293 743 1262Q776 1230 793 1182Q810 1133 810 1068Q810 1012 791 967Q772 921 736 888Q698 855 646 836Q593 817 522 817Z"/><path transform="translate(38099 0)" d="M280 489 709 1154 739 1210V489ZM924 489V1456H727L75 447V338H739V0H924V338H1127V489Z"/><path transform="translate(39328 0)" d="M240 730 388 692Q419 719 436 731Q462 749 487 760Q513 772 548 778Q586 785 627 785Q698 785 751 760Q806 734 842 692Q877 651 898 589Q918 529 918 462Q918 388 900 326Q882 263 849 222Q814 178 763 154Q714 131 646 131Q528 131 454 195Q379 259 363 383H187Q198 281 236 206Q274 132 338 80Q400 30 478.0 5.0Q556 -20 646 -20Q762 -20 848 16Q932 51 991 118Q1046 182 1075 271Q1103 358 1103 464Q1103 574 1073 664Q1044 752 987 818Q931 881 851 916Q770 951 670 951Q589 951 531 932Q468 912 428 888L469 1276H1060V1456H313Z"/><path transform="translate(40557 0)" d="M614 801Q682 801 731 773Q781 744 814 698Q846 654 863 590Q879 532 879 466Q879 390 862 332Q844 270 810.0 227.0Q776 184 725 158Q676 133 610 133Q554 133 503 160Q451 188 413 237Q373 290 351 362Q328 439 328 533V595Q344 639 374 679Q402 716 441 744Q478 770 523 786Q566 801 614 801ZM856 1457H840Q683 1457 561.0 1414.0Q439 1371 352 1284Q228 1160 184 983Q141 810 141 625V538Q141 433 173 326Q204 224 270 142Q329 69 413 25Q498 -20 610.0 -20.0Q722 -20 806 19Q889 58 947 126Q1003 193 1032 283Q1061 375 1061 475Q1061 564 1037 650Q1013 737 962 804Q910 873 832.0 914.0Q754 955 644 955Q589 955 548 944Q501 931 464 913Q428 896 390.0 866.0Q352 836 330 809Q336 908 368 996Q401 1087 464 1153Q524 1216 616 1254Q706 1291 840 1291H856Z"/><path transform="translate(41786 0)" d="M1096 1352V1456H112V1294H900L299 0H493Z"/><path transform="translate(43015 0)" d="M884 1073Q884 1018 866 971Q848 925 816 893Q783 860 738 842Q696 825 640.0 825.0Q584 825 542 842Q496 860 465 893Q432 924 414 970Q397 1012 397 1073Q397 1132 414 1176Q432 1222 464 1256Q493 1287 540 1306Q584 1324 638.0 1324.0Q692 1324 737 1306Q780 1289 815 1254Q850 1216 866 1174Q884 1128 884 1073ZM918 397Q918 331 898 284Q878 236 841 201Q804 167 753.0 149.0Q702 131 641 131Q577 131 526 149Q473 168 438 201Q401 237 382 284Q363 332 363 397Q363 459 382 509Q401 558 438 597Q475 634 525 653Q577 673 639 673Q700 673 752 653Q801 634 840 597Q877 560 898 509Q918 460 918 397ZM1070 1076Q1070 1171 1037 1246Q1004 1320 946 1371Q887 1423 809 1449Q730 1476 638 1476Q544 1476 466 1449Q387 1422 332 1371Q274 1319 243 1246Q211 1170 211 1076Q211 1022 226 973Q241 924 268 883Q295 841 334 808Q376 773 421 750Q364 726 320 690Q274 653 243 609Q210 560 194 508Q177 452 177 393Q177 292 213.0 216.0Q249 140 312 87Q374 34 458.0 7.0Q542 -20 641 -20Q734 -20 821 8Q904 35 968 88Q1030 141 1066 217Q1103 296 1103 393Q1103 457 1086 508Q1069 560 1036 608Q1004 653 958 690Q917 722 856 749Q888 766 916 785Q941 802 967 828Q1014 875 1042 940Q1068 1002 1070 1076Z"/><path transform="translate(44244 0)" d="M594 640Q528 640 478 670Q426 702 396 747Q364 794 347 856Q331 916 331 982Q331 1053 349 1116Q366 1177 402 1225Q437 1271 486 1296Q536 1322 601 1322Q658 1322 708 1294Q760 1265 798 1214Q836 1162 858 1085Q881 1007 881 912V852Q865 806 834 766Q805 728 768 700Q729 670 686 656Q638 640 594 640ZM373 164H354V-1H373Q553 -1 678.0 48.0Q803 97 875 178Q993 310 1029 480Q1065 651 1065 820V887Q1065 1006 1032 1126Q999 1245 933 1325Q879 1391 794 1434Q712 1476 600 1476Q487 1476 404 1436Q319 1395 263.0 1327.0Q207 1259 178.0 1166.0Q149 1073 149 972Q149 884 173.0 797.0Q197 710 248 641Q298 573 378.0 530.0Q458 487 564 487Q624 487 668.0 498.0Q712 509 754 530Q793 550 824 576Q854 602 879 633V631Q875 540 850 453Q826 367 757 292Q701 232 606 198Q510 164 373 164Z"/></g><g transform="translate(148 428) scale(0.015625 -0.015625)" fill="#E06C75"><path transform="translate(0 0)" d="M469 547 538 901H802L733 547ZM707 410 627 0H770L850 410H1102V547H876L945 901H1177V1040H972L1054 1456H911L829 1040H565L647 1456H504L422 1040H137V901H395L326 547H61V410H300L220 0H363L443 410Z"/><path transform="translate(2458 0)" d="M857 1456V443Q856 382 836 326Q817 271 780 228Q742 185 691 162Q636 137 573 137Q509 137 458 158Q406 179 369 218Q331 256 310 308Q289 361 286 421H98Q107 317 144 238Q182 157 243 100Q303 43 388 11Q471 -20 573 -20Q676 -20 760 14Q843 47 908.0 111.0Q973 175 1008 257Q1045 344 1046 443V1456Z"/><path transform="translate(3687 0)" d="M463 155Q422 169 395 194Q367 219 354.0 252.0Q341 285 341 326Q341 368 356 401Q370 433 402 458Q442 491 516.0 508.0Q590 525 683 525H855V306Q837 271 811 244Q784 215 745 192Q703 168 659 155Q611 141 558.0 141.0Q505 141 463 155ZM885 0H1078V16Q1061 58 1050 122Q1040 179 1040 236V739Q1040 830 1007.0 898.0Q974 966 917 1012Q857 1058 780 1080Q702 1102 609 1102Q506 1102 428 1074Q349 1046 294 1001Q237 953 208 898Q180 844 178 782H364Q364 817 380.0 848.0Q396 879 427 902Q460 926 500 939Q545 953 599 953Q658 953 706 938Q752 924 786 896Q819 867 837 829Q855 790 855 741V656H653Q537 656 448 634Q356 612 292 568Q228 523 192 456Q156 388 156 300Q156 230 182 174Q210 114 258 73Q303 32 376 5Q444 -20 531 -20Q582 -20 631 -9Q678 2 720 21Q767 44 796 65Q830 91 858 118Q860 93 868 52Q874 23 885 0Z"/><path transform="translate(4916 0)" d="M902 550V529Q902 450 884 378Q866 304 831 251Q797 198 739 164Q684 131 606 131Q557 131 518 143Q478 155 447 176Q422 192 397 220Q375 245 358 276V797Q378 832 402 859Q425 885 459 906Q485 924 524 935Q558 945 604 945Q682 945 738 913Q793 882 831 827Q866 774 884 700Q902 628 902 550ZM173 -416H358V104Q374 86 401 64Q425 44 450 30Q493 6 546 -7Q598 -20 662 -20Q764 -20 844 22Q922 63 977 138Q1030 210 1059 312Q1087 411 1087 529V550Q1087 672 1059 772Q1030 874 977 947Q923 1020 843.0 1061.0Q763 1102 659 1102Q599 1102 548 1090Q500 1079 455 1053Q424 1036 399 1014Q371 989 351 964L342 1082H173Z"/><path transform="translate(6145 0)" d="M463 155Q422 169 395 194Q367 219 354.0 252.0Q341 285 341 326Q341 368 356 401Q370 433 402 458Q442 491 516.0 508.0Q590 525 683 525H855V306Q837 271 811 244Q784 215 745 192Q703 168 659 155Q611 141 558.0 141.0Q505 141 463 155ZM885 0H1078V16Q1061 58 1050 122Q1040 179 1040 236V739Q1040 830 1007.0 898.0Q974 966 917 1012Q857 1058 780 1080Q702 1102 609 1102Q506 1102 428 1074Q349 1046 294 1001Q237 953 208 898Q180 844 178 782H364Q364 817 380.0 848.0Q396 879 427 902Q460 926 500 939Q545 953 599 953Q658 953 706 938Q752 924 786 896Q819 867 837 829Q855 790 855 741V656H653Q537 656 448 634Q356 612 292 568Q228 523 192 456Q156 388 156 300Q156 230 182 174Q210 114 258 73Q303 32 376 5Q444 -20 531 -20Q582 -20 631 -9Q678 2 720 21Q767 44 796 65Q830 91 858 118Q860 93 868 52Q874 23 885 0Z"/><path transform="translate(7374 0)" d="M174 0H359V776Q380 813 404 840Q431 870 459 891Q492 913 540 930Q584 945 635 945Q693 945 740 931Q786 917 817 886Q847 856 864 805Q880 757 880 683V0H1065V687Q1065 796 1038 874Q1010 954 963 1003Q914 1054 844 1078Q775 1102 690 1102Q622 1100 570 1084Q516 1067 466 1034Q436 1014 406 984Q374 952 353 922L340 1082H174Z"/><path transform="translate(8603 0)" d="M628 950Q698 950 750 924Q801 898 836 856Q868 817 889 756Q908 700 908 649V640H326Q336 714 364 772Q391 829 432 870Q472 909 522 930Q569 950 628 950ZM652 -20Q808 -20 918 44Q1025 106 1079 189L966 277Q916 212 838 171Q762 131 662 131Q585 131 525 159Q460 189 419 236Q376 282 352 342Q327 404 320 481V488H1093V571Q1093 682 1064.0 781.0Q1035 880 978 950Q918 1022 832.0 1062.0Q746 1102 628 1102Q536 1102 446 1064Q360 1028 289 955Q219 884 177.0 780.0Q135 676 135 545V503Q135 391 173 294Q209 201 279 128Q346 58 442.0 19.0Q538 -20 652 -20Z"/><path transform="translate(9832 0)" d="M893 287Q893 259 883 238Q872 214 854 196Q824 166 768 148Q712 130 639 130Q590 130 544 140Q495 151 457 174Q417 197 390 237Q365 274 360 333H175Q175 263 206.0 200.0Q237 137 298 88Q353 42 443 10Q528 -20 639 -20Q733 -20 816 3Q895 25 955 68Q1012 109 1046 169Q1078 226 1078 300Q1078 368 1050.0 418.0Q1022 468 967 508Q908 549 834 574Q753 602 655 622Q577 637 530 653Q479 670 451 689Q421 708 409.0 734.0Q397 760 397.0 791.0Q397 822 412.0 851.0Q427 880 457 902Q484 923 530 937Q573 950 634 950Q692 950 736 934Q784 916 814 892Q845 867 864 832Q882 799 882 764H1067Q1067 832 1036 896Q1006 957 950 1004Q895 1050 814.0 1076.0Q733 1102 634 1102Q540 1102 464 1077Q383 1051 330 1009Q275 966 243 908Q212 852 212 785Q212 719 242.0 668.0Q272 617 327 580Q382 542 458 515Q532 489 627 469Q702 454 754 436Q803 419 836 395Q866 373 880 346Q893 320 893 287Z"/><path transform="translate(11061 0)" d="M628 950Q698 950 750 924Q801 898 836 856Q868 817 889 756Q908 700 908 649V640H326Q336 714 364 772Q391 829 432 870Q472 909 522 930Q569 950 628 950ZM652 -20Q808 -20 918 44Q1025 106 1079 189L966 277Q916 212 838 171Q762 131 662 131Q585 131 525 159Q460 189 419 236Q376 282 352 342Q327 404 320 481V488H1093V571Q1093 682 1064.0 781.0Q1035 880 978 950Q918 1022 832.0 1062.0Q746 1102 628 1102Q536 1102 446 1064Q360 1028 289 955Q219 884 177.0 780.0Q135 676 135 545V503Q135 391 173 294Q209 201 279 128Q346 58 442.0 19.0Q538 -20 652 -20Z"/></g><g transform="translate(148 474) scale(0.015625 -0.015625)" fill="#ABB2BF"><path transform="translate(0 0)" d="M1417 999Q1415 995 1415 992Q1415 985 1426 982Q1605 931 1708 804Q1810 678 1810 515Q1810 302 1669 144Q1527 -15 1238 -76Q1222 -78 1215 -78Q1191 -78 1170 -69Q1137 -56 1117 -24Q1109 -11 1109.0 1.0Q1109 13 1114 26Q1118 37 1128.0 45.0Q1138 53 1152 55Q1386 99 1518 222Q1652 347 1652 523Q1652 638 1582 727Q1512 817 1381 856Q1378 857 1375 857Q1366 857 1362 846Q1204 458 938 227Q930 221 930 211Q930 208 931 204Q940 169 952 131Q957 117 957 105Q957 87 948 72Q933 45 902 36Q891 33 880 33Q862 33 844 42Q814 58 807 88L799 112Q798 119 792 119Q789 119 786 118Q614 16 464 16Q360 16 293 80Q227 143 227 266Q227 450 366.0 628.0Q505 806 709 903Q723 909 723 923Q730 1038 743 1187Q743 1188 743 1190Q743 1201 729 1201Q683 1199 623 1199Q542 1199 378 1209Q346 1209 324.0 1232.0Q302 1255 302 1287Q302 1289 302 1291Q302 1319 322 1336Q343 1354 370 1354Q372 1354 374 1354Q527 1338 625 1338Q691 1338 745 1340Q758 1340 760 1354Q761 1361 762.5 1377.5Q764 1394 765 1402Q770 1447 770 1454Q771 1462 772.5 1475.0Q774 1488 774 1493Q776 1499 776 1503Q781 1539 805 1562Q830 1585 862 1585H864Q896 1585 915 1558Q929 1538 929 1518Q929 1510 927 1501L926 1498L925 1495Q915 1445 903 1358Q902 1356 902 1355Q902 1352 905 1349Q910 1344 915 1344Q1264 1362 1522 1413Q1528 1414 1534 1414Q1557 1414 1574 1400Q1598 1381 1599 1354Q1599 1320 1578.0 1296.0Q1557 1272 1524 1266Q1226 1225 897 1207Q884 1206 882 1191Q875 1120 864 976Q864 970 868 967Q870 965 873 965Q874 965 876 966Q1041 1013 1195 1013H1254Q1255 1013 1257 1013Q1269 1013 1274 1025V1029Q1275 1032 1277.0 1043.5Q1279 1055 1281 1062Q1288 1093 1316 1112Q1336 1125 1356 1125Q1364 1125 1373 1123Q1406 1116 1422 1086Q1431 1070 1431 1053Q1431 1041 1426 1027Q1419 1006 1417 999ZM717 725V745Q717 748 712 751Q710 752 708 752L703 750Q561 665 470 537Q378 407 378 290Q378 170 490 170Q608 170 750 266Q760 272 760 286Q760 288 760 290Q717 512 717 725ZM1221 870Q1222 872 1222 874Q1222 877 1220 879Q1217 884 1211 884H1193Q1035 884 870 825Q856 820 856 805V743Q856 585 888 396Q889 392 894 390Q895 389 896 389Q898 389 901 392Q1108 590 1221 870Z"/><path transform="translate(1849 0)" d="M1381 1221Q1370 1238 1370 1256Q1370 1266 1373 1275Q1380 1304 1411 1315Q1426 1322 1448 1322Q1463 1322 1481 1317Q1517 1305 1536 1275Q1641 1117 1720 892Q1800 663 1828 457Q1830 447 1830 441Q1830 411 1812 384Q1792 350 1757 337Q1744 331 1732 331Q1714 331 1699 343Q1669 359 1665 392Q1633 625 1560 844Q1485 1067 1381 1221ZM270 1311Q270 1344 294 1371Q319 1399 355 1399H357Q395 1398 421 1368Q443 1343 443 1309V1301Q439 1250 437 1203V1109Q437 911 451 735Q477 477 546 331Q617 182 721 182Q781 182 838 270Q894 357 940 496Q951 525 980 532Q987 534 993 534Q1013 534 1031 515Q1061 480 1068 439Q1070 417 1070 409Q1070 380 1060 353Q981 159 898 76Q814 -8 717 -8Q562 -8 448 162Q333 332 296 694Q272 884 272 1225Z"/><path transform="translate(3698 0)" d="M656 1401Q624 1407 605 1432Q592 1454 592 1477Q592 1481 594 1491Q598 1522 625 1540Q645 1554 666 1554Q672 1554 682 1552Q997 1493 1373 1477Q1402 1476 1424 1452Q1440 1433 1440 1409Q1440 1405 1438 1397Q1433 1363 1407 1344Q1384 1324 1356 1324Q1354 1324 1348 1326Q955 1356 656 1401ZM1438 672Q1438 796 1345 876Q1251 956 1099 956Q1049 956 986 951Q939 947 886 940Q859 936 786 919Q729 906 702 898Q662 887 621 874Q560 855 558 854Q527 847 480 831Q463 825 451 825Q428 825 409 835Q377 851 366 890Q362 899 362 911Q362 936 378 956Q398 988 435 995Q481 1001 521 1011Q525 1012 537.0 1014.5Q549 1017 570.0 1022.0Q591 1027 612 1032Q684 1049 731 1059Q805 1074 846 1082Q913 1095 984 1101Q1050 1107 1115 1107Q1334 1107 1472 990Q1609 874 1609 666Q1609 516 1549.0 392.0Q1489 268 1380 178Q1274 91 1124 26Q981 -36 799 -71Q786 -74 774 -74Q749 -74 721 -63Q685 -46 662 -10Q654 6 654 20Q654 33 660 46Q673 73 705 78Q1046 135 1242.0 283.0Q1438 431 1438 672Z"/><path transform="translate(5547 0)" d="M1289 1099Q1311 1101 1319 1101Q1371 1101 1407 1064Q1423 1044 1423 1020Q1423 1016 1423 1012Q1420 984 1397 964Q1364 937 1346 919Q1120 717 986 578Q983 577 983 575Q983 574 984 572Q985 568 989 568Q1017 568 1034 564Q1036 564 1050 562L1064 560Q1161 543 1201 419Q1211 391 1232 318Q1257 229 1268 196Q1284 142 1324.0 116.0Q1364 90 1438 90Q1582 90 1730 116Q1735 117 1741 117Q1765 117 1787 100Q1808 80 1808 51Q1808 12 1781 -18Q1756 -44 1718 -49Q1556 -67 1430 -67Q1303 -67 1232 -30Q1160 8 1127 102Q1125 110 1114.0 148.0Q1103 186 1094 218Q1068 313 1062 335Q1024 439 940 439Q869 439 795 366Q626 202 453 0Q428 -31 388 -37H372Q344 -37 315 -20Q286 0 286 39Q286 72 310 94L337 121Q347 131 451.0 235.0Q555 339 743.0 526.5Q931 714 1146 929Q1147 930 1147.0 931.0Q1147 932 1146 934Q1144 938 1140 938Q1073 934 952 923Q839 913 704 902Q573 891 545 890Q513 889 470 882H460Q430 882 408 901Q376 925 376 966Q376 996 398 1019Q421 1042 457 1042H458H488H537Q626 1043 890 1063Q1175 1084 1264 1095Q1266 1095 1275.0 1096.5Q1284 1098 1289 1099ZM678 1418Q647 1422 629 1448Q616 1467 616 1489Q616 1496 617 1504Q623 1534 647 1552Q667 1563 688 1563H703Q998 1508 1340 1479Q1372 1474 1390 1452Q1404 1434 1404 1413Q1404 1406 1403 1399Q1399 1368 1374 1348Q1353 1331 1329 1331Q1324 1331 1319 1332Q969 1368 678 1418Z"/><path transform="translate(7396 0)" d="M1432 1221Q1406 1236 1399 1264Q1397 1278 1397 1283Q1397 1301 1407 1317Q1422 1343 1450 1350Q1459 1354 1469 1354Q1488 1354 1505 1344Q1697 1235 1836 1134Q1861 1115 1867 1083Q1869 1073 1869 1068Q1869 1045 1855 1023Q1840 999 1810 993H1801Q1776 993 1757 1009Q1630 1108 1432 1221ZM799 831V780Q799 774 803.0 771.0Q807 768 813 768Q1034 837 1234 837Q1452 837 1592.0 727.0Q1732 617 1732 441Q1732 84 1309 -18Q1231 -34 1148 -41H1140Q1106 -41 1080 -22Q1047 1 1034 35Q1031 46 1031 56Q1031 75 1042 90Q1060 114 1091 114Q1182 116 1240 129Q1385 154 1479.0 232.0Q1573 310 1573 439Q1573 563 1476.0 630.0Q1379 697 1232 697Q1030 697 815 625Q801 619 801 605Q806 454 807 350Q809 212 809 190Q809 58 763 3Q716 -53 633 -53Q554 -53 457 -9Q363 33 289 114Q217 192 217 276Q217 391 338 508Q460 625 639 705Q652 711 652 725V823Q652 958 654 1070Q654 1082 642 1082Q640 1082 639 1082Q574 1078 507 1078Q396 1078 331 1082Q297 1084 276 1106Q253 1131 253 1164Q253 1193 274 1214Q291 1231 316 1231Q321 1231 327 1230Q417 1225 504 1225Q568 1225 641 1228Q656 1230 656 1244Q660 1415 660 1456L658 1516Q658 1548 678 1571Q701 1597 735 1597Q770 1597 793 1571Q815 1549 815 1516L813 1460Q809 1403 807 1260Q807 1248 818 1248Q820 1248 821 1248Q998 1271 1138 1305Q1147 1307 1155 1307Q1174 1307 1190 1294Q1215 1274 1215 1246Q1215 1210 1193 1185Q1172 1158 1138 1152Q978 1119 817 1101Q803 1099 801 1085Q799 853 799 831ZM590 114Q660 114 660 212Q660 248 657 370Q654 492 654 547Q654 553 650 556Q648 557 647 557L641 554Q526 500 448 422Q374 348 374 282Q374 219 450 166Q524 114 590 114Z"/><path transform="translate(10474 0)" d="M1703 1442H1718Q1778 1442 1818 1403Q1842 1380 1842 1348Q1842 1322 1826 1303Q1824 1299 1821.5 1295.5Q1819 1292 1817.0 1288.0Q1815 1284 1814 1283Q1747 1169 1632 1030Q1516 890 1381 782Q1354 758 1319 758H1315Q1277 760 1248 784Q1226 803 1226 834Q1226 864 1252 884Q1359 960 1462 1074Q1562 1184 1612 1274Q1613 1276 1613 1278Q1613 1279 1612 1281Q1609 1285 1605 1285H478Q402 1285 339 1281H333Q299 1281 276 1303Q249 1328 249 1364Q249 1402 276 1424Q299 1446 331 1446H339Q422 1438 478 1438H1628Q1663 1438 1703 1442ZM893 1005Q893 1040 917 1064Q939 1091 978 1091Q1015 1091 1040 1066Q1066 1037 1066 1003V1001Q1064 847 1054 736Q1043 622 1014 508Q983 388 933 301Q881 211 796 126Q713 43 592 -29Q560 -47 525 -47H511Q468 -41 435 -14Q413 3 413 29Q413 33 414 38Q418 68 449 82Q496 105 539 135Q632 191 696 260Q763 332 800 404Q838 478 860 572Q882 664 888 752Q895 852 895 946Z"/><path transform="translate(12323 0)" d="M1536 1499Q1562 1527 1599 1528H1605Q1636 1528 1661 1507Q1689 1482 1689 1444Q1689 1409 1663 1383Q1446 1175 1203 1019Q1189 1011 1189 997V153L1193 29Q1193 -7 1168 -33Q1142 -63 1103.0 -63.0Q1064 -63 1038 -33Q1013 -7 1013 29L1017 153V895Q1017 902 1013 903Q1011 904 1009.0 904.0Q1007 904 1005 903Q702 740 349 625Q333 619 315 619Q295 619 274 627Q237 640 217 676Q208 694 208.0 709.0Q208 724 214 737Q224 768 259 776Q480 838 692 930Q912 1026 1068 1123Q1350 1298 1536 1499Z"/><path transform="translate(14172 0)" d="M1599 1274H1626Q1679 1274 1716 1252Q1740 1236 1750 1211Q1755 1193 1755 1178Q1755 1164 1754 1156Q1745 1124 1740 1097Q1679 727 1542 496Q1441 315 1261 174Q1082 34 844 -45Q820 -53 797 -53Q778 -53 756 -47Q714 -34 684 2Q669 17 669 36Q669 45 673 56Q684 89 715 96Q775 114 827 133Q984 182 1132 290Q1282 399 1370 535Q1444 653 1493 809Q1542 964 1560 1107Q1560 1108 1560 1110Q1560 1121 1546 1121H455Q439 1121 439 1107V762L441 729Q441 696 417 670Q395 645 361 645Q324 645 302 670Q278 696 278 729V770V1123V1164Q278 1209 312 1240Q341 1272 384 1272H388Q432 1270 458 1270H888Q903 1270 903 1285V1456L901 1516Q901 1552 925 1579Q950 1607 989 1607Q1027 1607 1052 1579Q1076 1552 1076 1516L1074 1456V1285Q1074 1270 1087 1270H1522Q1571 1270 1599 1274Z"/><path transform="translate(16021 0)" d="M1082 266Q1082 251 1095 251H1671Q1712 251 1748 255H1754Q1788 255 1810 231Q1838 209 1838 172Q1838 134 1810 112Q1784 88 1750 88H1748H1671H345Q317 88 259 86H255Q222 86 196 110Q168 135 168.0 172.0Q168 209 196 231Q218 255 253 255H259Q299 251 345 251H895Q911 251 911 266V1160Q911 1174 895 1174H458Q438 1174 378 1172H374Q342 1172 317 1195Q290 1219 290.0 1254.0Q290 1289 317 1313Q341 1334 372 1334Q376 1334 378 1332Q440 1330 458 1330H1563Q1606 1330 1646 1334H1652Q1683 1334 1707 1313Q1734 1289 1734.0 1254.0Q1734 1219 1707 1195Q1682 1172 1650 1172H1646Q1594 1174 1563 1174H1095Q1082 1174 1082 1160Z"/><path transform="translate(17870 0)" d="M1317 1223Q1317 1207 1330 1207H1632Q1673 1207 1718 1211H1724Q1754 1211 1777 1191Q1803 1170 1803 1136Q1803 1101 1777 1078Q1754 1054 1720 1054H1718Q1652 1056 1638 1056H1332Q1319 1056 1319 1040Q1327 595 1332 104Q1332 -57 1150 -57Q1037 -57 911 -49Q877 -48 850 -22Q826 1 821 37Q821 39 821 41Q821 70 842 90Q864 110 891 110Q893 110 895 110Q1012 96 1097 96Q1140 96 1156 114Q1172 131 1172 176Q1172 494 1166 890Q1166 892 1163 894Q1162 894 1161 894Q1159 894 1158 893Q1037 726 816 526Q599 330 364 194Q341 180 313 180Q308 180 294 182Q257 188 231 217Q216 236 216 261V274Q224 309 251 323Q512 463 740 664Q964 861 1087 1042Q1088 1044 1088.0 1046.5Q1088 1049 1087 1051Q1085 1056 1082 1056H433Q399 1056 333 1054H329Q295 1054 272 1076Q247 1098 247 1134Q247 1169 272 1191Q297 1211 325 1211H331Q376 1207 431 1207H1146Q1162 1207 1162 1223Q1158 1344 1156 1403Q1153 1426 1152 1438L1150 1487Q1150 1519 1172 1544Q1194 1571 1230 1571Q1268 1571 1293 1544Q1315 1519 1315 1485L1313 1403Z"/><path transform="translate(20948 0)" d="M1892 266Q1875 249 1850 249H1407Q1402 249 1401 245Q1400 243 1400.0 241.0Q1400 239 1401 237Q1548 52 1851 -18Q1876 -23 1883 -46Q1886 -54 1886 -61Q1886 -75 1875 -88Q1853 -118 1822 -131Q1803 -139 1785 -139Q1769 -139 1757 -135Q1396 -28 1244 245Q1243 249 1238.0 249.0Q1233 249 1232 245Q1098 0 711 -133Q698 -139 682.0 -139.0Q666 -139 650 -133Q620 -122 601 -96Q590 -82 590 -67Q590 -61 592 -51Q599 -28 625 -20Q927 72 1056 237Q1059 240 1059 242Q1059 243 1058 245Q1057 249 1050 249H654Q629 249 612 266Q594 284 594.0 308.0Q594 332 612.0 350.0Q630 368 654 368H1117Q1132 368 1136 384Q1154 440 1160 494Q1160 495 1160 497Q1160 507 1146 507H737Q714 507 696.0 525.0Q678 543 678 568Q678 592 696 608Q715 625 737 625H1152Q1168 625 1168 641V746Q1168 760 1152 760H844Q795 760 762.0 794.0Q729 828 729 876V1078Q729 1127 762.0 1160.0Q795 1193 844 1193H1658Q1707 1193 1740.0 1160.0Q1773 1127 1773 1078V876Q1773 828 1740.0 794.0Q1707 760 1658 760H1326Q1313 760 1313 746V641Q1313 625 1326 625H1769Q1791 625 1810 608Q1828 591 1828 568Q1828 543 1810.0 525.0Q1792 507 1769 507H1322Q1308 507 1307 494Q1296 429 1285 384Q1284 380 1284 378Q1284 368 1297 368H1850Q1874 368 1892.0 350.0Q1910 332 1910.0 308.0Q1910 284 1892 266ZM1622 870Q1638 870 1638 886V1066Q1638 1082 1622 1082H1326Q1313 1082 1313 1066V886Q1313 870 1326 870ZM858 886Q858 870 874 870H1152Q1168 870 1168 886V1066Q1168 1082 1152 1082H874Q858 1082 858 1066ZM431 539Q442 563 470 571Q478 573 487 573Q505 573 519 562Q546 542 554 512Q557 500 557 488Q557 469 549 451Q433 189 304 -57Q291 -83 258 -91Q249 -93 241 -93Q221 -93 202 -80Q174 -61 167 -27Q165 -15 165 -8Q165 13 176 35Q304 256 431 539ZM453 974Q478 956 483 924Q484 918 484 912Q484 889 468 868Q452 843 422 840Q418 840 413 840Q388 840 366 854Q277 921 145 987Q122 999 114 1025V1038Q114 1058 123 1072Q143 1098 172 1105Q183 1108 193 1108Q212 1108 229 1099Q361 1037 453 974ZM554 1495Q580 1475 583 1444Q583 1440 583 1436Q583 1410 566 1387Q551 1364 522 1361Q518 1361 514 1361Q488 1361 468 1377Q367 1457 245 1522Q222 1533 216 1560Q214 1566 214 1573Q214 1590 227 1607Q246 1631 274 1638Q288 1640 294 1640Q312 1640 331 1632Q461 1565 554 1495ZM959 1256Q938 1276 938 1305V1366Q938 1381 925 1381H678Q652 1381 634 1399Q615 1418 615 1442Q615 1465 634 1486Q652 1505 678 1505H925Q938 1505 938 1520V1609Q938 1638 959 1658Q979 1677 1007.0 1677.0Q1035 1677 1055 1658Q1076 1638 1076 1609V1520Q1076 1505 1089 1505H1391Q1407 1505 1407 1520V1609Q1407 1635 1428.0 1656.0Q1449 1677 1476 1677Q1504 1677 1524 1656Q1544 1634 1544 1609V1520Q1544 1505 1560 1505H1836Q1861 1505 1880.0 1486.0Q1899 1467 1899.0 1442.0Q1899 1417 1880 1399Q1860 1381 1836 1381H1560Q1544 1381 1544 1366V1305Q1544 1276 1524.0 1256.0Q1504 1236 1476 1236Q1450 1236 1428 1256Q1407 1276 1407 1305V1366Q1407 1381 1391 1381H1089Q1076 1381 1076 1366V1305Q1076 1276 1055 1256Q1033 1236 1007.0 1236.0Q981 1236 959 1256Z"/><path transform="translate(22797 0)" d="M1793 603Q1821 603 1842.0 582.0Q1863 561 1863 533Q1863 504 1842.0 483.0Q1821 462 1793 462H1097Q1083 462 1083 447V31Q1083 -34 1062.0 -70.0Q1041 -106 989 -123Q920 -148 729 -149Q693 -149 664 -127Q635 -107 619 -72Q614 -62 614 -51Q614 -38 621 -26Q634 -4 660 -4Q774 -6 799 -6Q844 -6 882 -4Q905 -3 917 6Q927 13 927 33V447Q927 462 913 462H219Q191 462 170.0 483.0Q149 504 149 533Q149 561 170.0 582.0Q191 603 219 603H913Q927 603 927 619V686Q927 713 946 732Q966 752 993 752Q1002 752 1009 756Q1149 838 1274 954Q1274 955 1274 957Q1274 958 1274.0 959.5Q1274 961 1274 962Q1274 966 1270 966H541Q512 966 492.0 986.0Q472 1006 472 1034Q472 1064 492 1084Q511 1103 541 1103H1418Q1420 1103 1426 1105Q1436 1107 1442 1107Q1461 1107 1477 1093L1503 1074Q1524 1060 1526 1034Q1526 1032 1526 1030Q1526 1008 1511 991Q1328 804 1097 674Q1083 666 1083 650V619Q1083 603 1097 603ZM327 1322Q313 1322 313 1307V1066Q313 1035 292.0 1014.0Q271 993 240.0 993.0Q209 993 188.0 1014.0Q167 1035 167 1066V1346Q167 1395 201 1428Q237 1462 282 1462H909Q923 1462 923 1477V1605Q923 1635 946.0 1658.0Q969 1681 1000 1681Q1033 1681 1056 1658Q1078 1636 1078 1605V1477Q1078 1462 1091 1462H1722Q1768 1462 1804 1428Q1838 1395 1838 1346V1070Q1838 1038 1816 1016Q1793 993 1762.0 993.0Q1731 993 1708.0 1016.0Q1685 1039 1685 1070V1307Q1685 1322 1671 1322Z"/><path transform="translate(24646 0)" d="M361 1469Q361 1516 395 1550Q430 1585 476 1585H1548Q1594 1585 1629 1550Q1663 1516 1663 1469V2Q1663 -31 1640 -54Q1618 -76 1585.0 -76.0Q1552 -76 1530 -54Q1507 -31 1507 2V31Q1507 45 1493 45H525Q511 45 511 31V-12Q511 -41 488 -64Q466 -86 436.0 -86.0Q406 -86 384 -64Q361 -41 361 -12ZM1507 1426Q1507 1440 1493 1440H525Q511 1440 511 1426V913Q511 897 525 897H1493Q1507 897 1507 913ZM511 208Q511 192 525 192H1493Q1507 192 1507 208V737Q1507 750 1493 750H525Q511 750 511 737Z"/><path transform="translate(26495 0)" d="M1873 1184Q1873 1151 1852.0 1130.0Q1831 1109 1801 1109H1187Q1181 1109 1178 1105Q1177 1103 1177 1102Q1177 1100 1178 1097Q1295 860 1476 658Q1658 455 1865 335Q1893 319 1899 288V278Q1899 253 1881 235Q1856 205 1824 198Q1808 196 1803 196Q1780 196 1757 208Q1558 337 1386.0 533.0Q1214 729 1085 970Q1085 972 1082 972Q1080 972 1080 968V384Q1080 368 1093 368H1387Q1416 368 1438.0 346.0Q1460 324 1460.0 294.0Q1460 264 1438 242Q1417 221 1387 221H1093Q1080 221 1080 206V-74Q1080 -107 1057.0 -130.0Q1034 -153 1002 -153Q971 -153 948.0 -130.0Q925 -107 925 -74V206Q925 221 911 221H607Q578 221 556 242Q533 263 533.0 294.0Q533 325 556 346Q580 368 607 368H911Q925 368 925 384V968Q925 972 922.0 972.0Q919 972 919 970Q790 733 614 533Q437 332 243 206Q220 192 198 192Q192 192 182 194Q148 200 125 225Q110 244 110 268Q110 303 139 323Q345 449 525 654Q709 864 827 1097Q828 1099 828 1100Q828 1103 826 1105Q823 1109 817 1109H212Q179 1109 158.0 1130.0Q137 1151 137 1184Q137 1215 158 1236Q180 1258 212 1258H911Q925 1258 925 1274V1601Q925 1631 948.0 1654.0Q971 1677 1002 1677Q1034 1677 1057.0 1654.0Q1080 1631 1080 1601V1274Q1080 1258 1093 1258H1801Q1830 1258 1852 1236Q1873 1215 1873 1184Z"/><path transform="translate(28344 0)" d="M1750 864Q1750 848 1763 848H1859Q1886 848 1906.0 828.0Q1926 808 1926 782Q1926 754 1906 736Q1885 717 1859 717H884Q857 717 836 736Q817 754 817 782Q817 809 836 828Q856 848 884 848H1062Q1079 848 1080 864Q1109 1003 1130 1125Q1131 1128 1131 1131Q1131 1140 1119 1140H972Q944 1140 926 1159Q907 1180 907.0 1204.0Q907 1228 926 1249Q944 1268 972 1268H1138Q1154 1268 1156 1283Q1164 1324 1183 1460Q1183 1462 1183 1463Q1183 1475 1172 1475H942Q915 1475 896 1494Q876 1514 876.0 1540.0Q876 1566 896 1586Q915 1605 942 1605H1797Q1824 1605 1842 1586Q1861 1565 1861.0 1540.0Q1861 1515 1842 1494Q1824 1475 1797 1475H1346Q1332 1475 1330 1460Q1324 1421 1301 1283Q1301 1282 1301 1280Q1301 1268 1313 1268H1634Q1680 1268 1716 1234Q1750 1201 1750 1152ZM1607 1125Q1607 1140 1593 1140H1291Q1276 1140 1274 1125Q1244 953 1225 862Q1225 860 1225 859Q1225 848 1236 848H1593Q1607 848 1607 864ZM980 -132Q960 -112 960 -82V447Q960 494 994.0 528.0Q1028 562 1076 562H1689Q1736 562 1770.0 528.0Q1804 494 1804 447V-72Q1804 -102 1782 -124Q1761 -145 1731.0 -145.0Q1701 -145 1680.0 -124.0Q1659 -103 1659 -72V-71Q1659 -61 1650 -61H1111Q1101 -61 1101 -71V-82Q1101 -111 1080.0 -132.0Q1059 -153 1030.0 -153.0Q1001 -153 980 -132ZM1659 415Q1659 429 1644 429H1117Q1101 429 1101 415V88Q1101 74 1117 74H1644Q1659 74 1659 88ZM145 1221Q119 1221 102 1238Q84 1256 84 1282Q84 1306 102.0 1324.0Q120 1342 145 1342H746Q772 1342 790 1324Q809 1305 809 1282Q809 1257 790 1238Q773 1221 746 1221ZM682 1066Q705 1066 723.0 1048.0Q741 1030 741.0 1006.0Q741 982 723.0 964.0Q705 946 682 946H237Q214 946 196.0 964.0Q178 982 178.0 1006.0Q178 1030 196.0 1048.0Q214 1066 237 1066ZM237 674Q214 674 196.0 692.0Q178 710 178.0 734.0Q178 758 196 775Q215 792 237 792H682Q704 792 723 775Q741 759 741 734Q741 710 723.0 692.0Q705 674 682 674ZM633 519Q680 519 714 486Q748 453 748 404V55Q748 8 714 -26Q679 -61 633 -61H315Q306 -61 306 -71V-86Q306 -112 286 -132Q267 -151 240.0 -151.0Q213 -151 194 -132Q174 -112 174 -86V404Q174 453 208.0 486.0Q242 519 290 519ZM617 382Q617 398 603 398H319Q306 398 306 382V78Q306 65 319 65H603Q617 65 617 78ZM678 1609Q703 1609 721.0 1591.0Q739 1573 739 1548Q739 1524 721 1506Q704 1489 678 1489H251Q225 1489 208 1506Q190 1524 190 1548Q190 1573 208.0 1591.0Q226 1609 251 1609Z"/><path transform="translate(31422 0)" d="M809 1391H821Q880 1391 907 1352Q929 1324 929 1291Q929 1271 921 1244Q920 1242 918.5 1238.5Q917 1235 917 1234Q832 943 713 756Q699 732 672 731H666Q643 731 625 746Q604 767 602 798Q602 800 602 803Q602 831 617 852Q716 1003 778 1225Q779 1226 779 1228Q779 1231 777 1233Q774 1238 768 1238H239H212H208Q173 1238 151 1260Q123 1281 123 1314Q123 1349 151 1371Q174 1391 206 1391H212H239H797ZM425 993Q425 1020 444 1042Q461 1062 490 1062Q518 1062 538 1042Q556 1024 556 998Q556 995 556 993Q556 818 548 684Q540 558 518 423Q495 283 450 181Q402 71 331 -16Q312 -41 278 -41Q276 -43 274 -43Q242 -43 220 -22Q199 -2 199 26Q199 28 199 30Q201 62 221 84Q245 109 259 133Q361 273 394 458Q427 641 427 919Q427 943 425 993Z"/><path transform="translate(32721 0)" d="M625 1033Q615 1022 615 1007V147Q615 104 617 2Q617 0 617 -3Q617 -30 600 -48Q580 -69 552.0 -69.0Q524 -69 504 -48Q484 -26 484 2Q486 106 486 151V854Q486 859 482 860Q480 861 479 861Q477 861 476 858Q356 738 198 631Q178 618 159 618Q148 618 137 622Q106 632 94 664Q88 682 88 700Q88 717 94 735Q108 771 139 790Q357 921 498 1099Q648 1285 735 1475Q745 1500 772 1505H782Q804 1505 817 1489Q841 1462 846 1422Q848 1412 848 1407Q848 1379 835 1354Q754 1206 625 1033Z"/><path transform="translate(34020 0)" d="M786 1256Q798 1258 805 1258Q833 1258 848 1242L860 1228Q891 1200 891 1152V1134Q891 1131 890.0 1124.0Q889 1117 888.0 1104.5Q887 1092 886 1080Q883 1056 878.0 996.0Q873 936 869 896Q868 887 866.5 873.0Q865 859 862.5 837.5Q860 816 858 798Q852 749 844 689Q840 659 825 591Q812 533 801 490Q704 147 447 -33Q424 -47 404 -47Q398 -47 382 -45Q348 -34 329 -4Q319 13 319 33Q319 47 323 59Q334 91 364 108Q367 110 378.0 117.0Q389 124 394 127Q478 182 556 289Q635 397 674 531Q732 714 748 1085Q748 1099 733 1099H272Q257 1099 257 1085V754V701Q257 674 238 656Q217 637 193 637Q168 637 149 654Q131 674 131 699L133 764V1107L131 1148Q131 1191 163 1221Q195 1252 241 1252H423Q437 1252 437 1266V1418Q437 1441 435 1503Q435 1505 435 1507Q435 1531 452 1550Q470 1569 496 1569Q524 1569 542 1550Q558 1533 558 1507Q558 1505 558 1503V1418V1266Q558 1252 572 1252H743Q769 1252 786 1256Z"/><path transform="translate(35319 0)" d="M560 272Q560 257 574 257H839Q872 257 900 234Q927 211 927 178Q927 142 900.0 118.0Q873 94 839 94H165H163Q127 94 100 118Q74 141 74 178Q74 212 100 234Q128 257 163 257H165H415Q429 257 429 272V1152Q429 1168 415 1168H216H214Q177 1168 154 1190Q129 1213 129.0 1246.0Q129 1279 154 1302Q177 1324 214 1324H216H786H790Q827 1324 850 1302Q874 1280 874.0 1246.0Q874 1212 850 1190Q827 1168 790 1168H786H574Q560 1168 560 1152Z"/><path transform="translate(36618 0)" d="M711 1193Q712 1178 727 1178H868Q902 1178 926.0 1157.0Q950 1136 950 1105Q950 1072 926 1048Q903 1025 868 1025H727Q713 1025 713 1011Q719 572 719 96Q719 -59 609 -59Q572 -59 505 -53Q469 -48 446 -24Q421 3 421 37Q421 39 421 41Q421 71 442 88Q463 105 487 105Q493 105 498 104Q526 100 562 100Q583 100 592.0 118.0Q601 136 601 176Q601 343 598 823Q598 827 596.0 827.0Q594 827 594 825Q530 657 440 498Q346 331 241 210Q224 191 200 191Q197 191 193 191Q164 194 151 219Q137 244 137 268Q137 274 139 282Q144 316 167 341Q291 472 388 652Q486 834 547 1011Q548 1014 548 1016Q548 1019 546 1021Q543 1025 537 1025H239H225H223Q191 1025 165 1048Q141 1070 141.0 1103.0Q141 1136 165 1158Q191 1178 221 1178H223H237H582Q596 1178 596 1193Q596 1238 595 1280Q593 1345 592 1368Q592 1393 591 1416Q590 1448 588 1469Q588 1498 606.0 1516.0Q624 1534 649 1534Q676 1534 694 1516Q711 1499 711 1473Q711 1471 711 1469Q709 1415 709 1399V1368Z"/></g><g transform="translate(148 520) scale(0.015625 -0.015625)" fill="#E06C75"><path transform="translate(0 0)" d="M469 547 538 901H802L733 547ZM707 410 627 0H770L850 410H1102V547H876L945 901H1177V1040H972L1054 1456H911L829 1040H565L647 1456H504L422 1040H137V901H395L326 547H61V410H300L220 0H363L443 410Z"/><path transform="translate(2458 0)" d="M1086 0V1456H899L896 370L331 1456H143V0H330L333 1088L898 0Z"/><path transform="translate(3687 0)" d="M628 950Q698 950 750 924Q801 898 836 856Q868 817 889 756Q908 700 908 649V640H326Q336 714 364 772Q391 829 432 870Q472 909 522 930Q569 950 628 950ZM652 -20Q808 -20 918 44Q1025 106 1079 189L966 277Q916 212 838 171Q762 131 662 131Q585 131 525 159Q460 189 419 236Q376 282 352 342Q327 404 320 481V488H1093V571Q1093 682 1064.0 781.0Q1035 880 978 950Q918 1022 832.0 1062.0Q746 1102 628 1102Q536 1102 446 1064Q360 1028 289 955Q219 884 177.0 780.0Q135 676 135 545V503Q135 391 173 294Q209 201 279 128Q346 58 442.0 19.0Q538 -20 652 -20Z"/><path transform="translate(4916 0)" d="M883 1102Q767 1102 672 1050Q581 1000 514 910L513 937L505 1082H329V0H515V694Q533 744 560 784Q586 824 625 853Q668 886 721 902Q775 918 844 918Q898 918 946 912Q1004 905 1048 895L1073 1076Q1046 1087 990 1095Q938 1102 883 1102Z"/><path transform="translate(6145 0)" d="M324 529V550Q324 626 341 700Q357 770 394 827Q429 882 484 913Q540 945 618 945Q707 945 770 902Q831 861 867 794V292Q830 220 770 179Q708 137 616 137Q539 137 484.0 168.0Q429 199 394 254Q357 309 341 379Q324 452 324 529ZM139 550V529Q139 411 170 312Q202 212 257 138Q313 64 392 22Q472 -20 570 -20Q671 -20 745 14Q821 49 874 114L882 0H1052V1536H867V975Q814 1037 742 1070Q672 1102 572 1102Q473 1102 393 1061Q312 1020 257 947Q200 873 170 772Q139 667 139 550Z"/><path transform="translate(8603 0)" d="M984 643V800H378V1298H1085V1456H191V0H378V643Z"/><path transform="translate(9832 0)" d="M307 529V551Q307 632 326 702Q346 776 384 830Q421 884 479 918Q534 950 613 950Q693 950 748 918Q806 885 844 830Q883 772 902.0 702.0Q921 632 921 551V529Q921 446 902 376Q883 305 845 249Q807 194 748 162Q690 130 615 130Q539 130 480 162Q422 194 384 249Q346 304 326 376Q307 446 307 529ZM122 551V529Q122 411 156 312Q191 210 254 138Q318 63 408 22Q500 -20 615 -20Q728 -20 820 22Q909 63 975 138Q1037 211 1072 312Q1106 411 1106 529V551Q1106 669 1072 768Q1037 871 975 943Q908 1020 820 1060Q728 1102 613 1102Q500 1102 408 1060Q319 1019 254 943Q192 872 156 768Q122 669 122 551Z"/><path transform="translate(11061 0)" d="M174 0H359V776Q380 813 404 840Q431 870 459 891Q492 913 540 930Q584 945 635 945Q693 945 740 931Q786 917 817 886Q847 856 864 805Q880 757 880 683V0H1065V687Q1065 796 1038 874Q1010 954 963 1003Q914 1054 844 1078Q775 1102 690 1102Q622 1100 570 1084Q516 1067 466 1034Q436 1014 406 984Q374 952 353 922L340 1082H174Z"/><path transform="translate(12290 0)" d="M612 1344H426V1082H142V939H426V351Q426 248 452 180Q479 109 525 66Q572 21 634 0Q694 -20 768 -20Q815 -20 854 -16Q899 -11 937 -4Q976 4 1009 14Q1043 25 1065 38L1039 169Q1033 167 1018.0 164.5Q1003 162 996 160Q962 152 939 149L876 140Q844 137 814 137Q770 137 736 147Q699 158 672 182Q645 204 628 247Q612 286 612 351V939H1024V1082H612Z"/><path transform="translate(13519 0)" d="M893 287Q893 259 883 238Q872 214 854 196Q824 166 768 148Q712 130 639 130Q590 130 544 140Q495 151 457 174Q417 197 390 237Q365 274 360 333H175Q175 263 206.0 200.0Q237 137 298 88Q353 42 443 10Q528 -20 639 -20Q733 -20 816 3Q895 25 955 68Q1012 109 1046 169Q1078 226 1078 300Q1078 368 1050.0 418.0Q1022 468 967 508Q908 549 834 574Q753 602 655 622Q577 637 530 653Q479 670 451 689Q421 708 409.0 734.0Q397 760 397.0 791.0Q397 822 412.0 851.0Q427 880 457 902Q484 923 530 937Q573 950 634 950Q692 950 736 934Q784 916 814 892Q845 867 864 832Q882 799 882 764H1067Q1067 832 1036 896Q1006 957 950 1004Q895 1050 814.0 1076.0Q733 1102 634 1102Q540 1102 464 1077Q383 1051 330 1009Q275 966 243 908Q212 852 212 785Q212 719 242.0 668.0Q272 617 327 580Q382 542 458 515Q532 489 627 469Q702 454 754 436Q803 419 836 395Q866 373 880 346Q893 320 893 287Z"/></g><g transform="translate(148 566) scale(0.015625 -0.015625)" fill="#ABB2BF"><path transform="translate(0 0)" d="M420 -362H144V120Q144 300 222 413Q280 494 390 566L544 665Q630 721 672 804Q710 881 710 1013V1342H502L794 1684L1086 1342H876V957Q876 767 822 662Q770 559 664 490L588 439Q492 375 460 316Q420 245 420 120ZM420 822 144 644V1953H420Z"/><path transform="translate(3687 0)" d="M-73 2160H14L1229 796L14 -568H-73Z"/><path transform="translate(7374 0)" d="M1587 868Q1618 837 1618.0 795.0Q1618 753 1587 721L884 18Q852 -13 810.0 -13.0Q768 -13 737 18L32 724Q0 755 0.0 797.0Q0 839 31 871L515 1355L697 1172Q682 1139 688.0 1101.0Q694 1063 721 1036Q739 1018 758 1009V566Q741 558 721 538Q685 503 687.0 451.0Q689 399 725.0 363.0Q761 327 813.0 327.0Q865 327 901.0 363.0Q937 399 937.0 451.0Q937 503 901 538Q886 553 868 562V1001L1035 834Q1025 809 1025 787Q1025 737 1062.0 700.0Q1099 663 1149 663Q1200 663 1237 700Q1273 735 1273.0 787.0Q1273 839 1237 875Q1211 901 1176.0 909.0Q1141 917 1109 904L930 1083Q937 1106 937 1124Q937 1175 901 1211Q876 1236 840.0 1244.0Q804 1252 773 1241L588 1427L734 1573Q766 1604 808.0 1604.0Q850 1604 881 1573Z"/><path transform="translate(11061 0)" d="M678 1604V1606Q694 1614 713 1614Q717 1614 719.0 1614.0Q721 1614 722 1614L264 826L41 1236ZM744 1606Q745 1606 747 1606L749 1604L1065 1422L1393 1232Q1401 1228 1406 1222L1194 832ZM731 1604 1187 818 731 -22H729H727L272 814ZM30 1228 257 814 9 388Q0 402 0 420V1170Q0 1208 30 1228ZM1415 1210Q1429 1190 1429 1170V430L1203 818Q1231 870 1303.0 1004.0Q1375 1138 1415 1210ZM1195 806 1427 406Q1420 374 1394 358Q1286 296 1072.0 172.0Q858 48 750 -14ZM265 800 714 -24H709Q703 -24 700.0 -23.0Q697 -22 693 -20H689Q684 -18 679 -14Q677 -14 675.0 -13.0Q673 -12 672 -10Q601 30 471.0 105.0Q341 180 236 242Q130 304 36 358Q29 362 18 376Z"/><path transform="translate(14748 0)" d="M1665 861V731H894V-34H764V731H0V861H764V1625H894V861Z"/><path transform="translate(18435 0)" d="M2126 798Q2126 749 2091.0 714.0Q2056 679 2008 679H1890L1892 88Q1892 78 1890 58V-1Q1890 -63 1847.0 -106.0Q1804 -149 1743 -149H1684H1672H1656H1536H1447Q1386 -149 1343.0 -106.0Q1300 -63 1300 -1V87V324Q1300 374 1266.0 408.0Q1232 442 1182 442H945Q896 442 862.0 408.0Q828 374 827 324V87V-1Q828 -62 784.0 -106.0Q740 -150 679 -149H591H473Q470 -148 464.0 -148.0Q458 -148 456.0 -148.0Q454 -148 450.0 -148.0Q446 -148 443 -149H384Q322 -150 279.0 -106.0Q236 -62 236 -1V412Q236 414 236.0 417.0Q236 420 237 422V679H118Q68 680 34.0 714.0Q0 748 0 798Q0 850 37 887L984 1712Q1013 1741 1065 1741Q1111 1741 1142 1716L2085 887Q2132 846 2126 798Z"/><path transform="translate(22122 0)" d="M1450 1736Q1497 1721 1521.0 1679.0Q1545 1637 1532 1590L1059 -64Q1044 -111 1002.0 -135.0Q960 -159 913.0 -146.0Q866 -133 842.0 -89.0Q818 -45 832 1L1304 1655Q1317 1702 1360.0 1726.0Q1403 1750 1450 1736ZM1748 1293V1292Q1782 1327 1831.0 1327.0Q1880 1327 1915 1292L2328 879Q2362 845 2362.0 795.0Q2362 745 2328 711L1915 298Q1880 263 1831.0 263.0Q1782 263 1748.0 298.0Q1714 333 1714.0 382.0Q1714 431 1748 465L2078 795L1748 1125Q1714 1159 1714.0 1209.0Q1714 1259 1748 1293ZM616 1125 285 795 616 465Q650 431 650.0 382.0Q650 333 616.0 298.0Q582 263 532.0 263.0Q482 263 448 298L35 712Q0 747 0.0 796.0Q0 845 35 879L448 1293Q482 1327 532.0 1327.0Q582 1327 616.0 1293.0Q650 1259 650.0 1209.0Q650 1159 616 1125Z"/><path transform="translate(25809 0)" d="M1162 749V748Q1163 734 1163.0 716.0Q1163 698 1175.0 654.0Q1187 610 1207 570Q1229 532 1277.0 486.0Q1325 440 1390 410Q1371 352 1336.0 283.0Q1301 214 1252.0 141.0Q1203 68 1139.0 19.0Q1075 -30 1011 -31Q961 -32 875.0 2.0Q789 36 729 36Q663 36 577.0 3.0Q491 -30 449 -31Q398 -33 344.0 2.0Q290 37 246 90Q201 143 161.0 209.0Q121 275 95.0 331.0Q69 387 53 432Q0 588 0 732Q1 827 25.0 908.0Q49 989 91.0 1046.0Q133 1103 187 1143Q241 1182 301.0 1202.0Q361 1222 425 1223Q481 1223 583.0 1187.0Q685 1151 707 1151Q725 1151 781.0 1172.0Q837 1193 907.0 1212.0Q977 1231 1034 1227Q1243 1210 1346 1062Q1161 950 1162 749ZM953 1356Q837 1219 696 1229Q685 1374 791 1494Q836 1546 906.0 1582.0Q976 1618 1041 1623Q1052 1474 953 1356Z"/><path transform="translate(29496 0)" d="M1212.0 1636.0Q1292 1716 1404.0 1716.0Q1516 1716 1596.0 1636.0Q1676 1556 1676.0 1444.0Q1676 1332 1596.0 1252.0Q1516 1172 1404.0 1172.0Q1292 1172 1212.0 1252.0Q1132 1332 1132.0 1444.0Q1132 1556 1212.0 1636.0ZM1032 1688Q1064 1688 1096 1688Q1040 1616 1020 1528Q1016 1496 1012 1464Q852 1464 710.0 1388.0Q568 1312 480 1180Q420 1216 352 1232Q312 1240 272 1240Q260 1240 252 1240Q368 1448 580.0 1570.0Q792 1692 1032 1688ZM1768 1292Q1972 980 1896 612Q1852 408 1724 248Q1692 368 1592 448Q1652 548 1676 660Q1728 896 1616 1112Q1720 1176 1768 1292ZM1724 248ZM80.0 1040.0Q160 1120 272.0 1120.0Q384 1120 464.0 1040.0Q544 960 544.0 848.0Q544 736 464.0 656.0Q384 576 272.0 576.0Q160 576 80.0 656.0Q0 736 0.0 848.0Q0 960 80.0 1040.0ZM432 492Q580 212 884 148Q920 140 952 136Q956 12 1032 -92Q936 -92 840 -72Q620 -24 452.0 118.0Q284 260 200 464Q320 440 432 492ZM1152.0 340.0Q1232 420 1344.0 420.0Q1456 420 1536.0 340.0Q1616 260 1616.0 146.0Q1616 32 1536.0 -46.0Q1456 -124 1344.0 -124.0Q1232 -124 1152.0 -46.0Q1072 32 1072.0 146.0Q1072 260 1152.0 340.0Z"/><path transform="translate(33183 0)" d="M858 1780Q798 1778 756.0 1735.0Q714 1692 713 1632V1630V670Q713 608 756.0 565.0Q799 522 860.0 522.0Q921 522 964.0 565.0Q1007 608 1007 670V1630V1632Q1007 1694 964.0 1737.0Q921 1780 860 1780ZM334 1296H331Q303 1296 271.0 1281.0Q239 1266 221 1246Q116 1130 58.0 982.0Q0 834 0 670Q0 496 68.0 337.0Q136 178 252 64Q368 -52 526 -120Q685 -188 859.0 -188.0Q1033 -188 1192.0 -120.0Q1351 -52 1466 64Q1582 180 1650 338Q1718 496 1718 670Q1718 834 1660.0 982.0Q1602 1130 1497 1246Q1479 1266 1447.0 1281.0Q1415 1296 1387 1296Q1326 1296 1283.0 1253.0Q1240 1210 1240 1150Q1240 1126 1252.0 1096.0Q1264 1066 1279 1050Q1424 886 1424 670Q1424 516 1348.0 386.0Q1272 256 1143 180Q1013 106 859 106Q704 106 574.0 182.0Q444 258 369 386Q294 516 294 670Q294 886 439 1050Q454 1066 466.0 1096.0Q478 1126 478 1150Q478 1210 436.0 1252.0Q394 1294 334 1296Z"/></g>
</svg>
